G75*
G70*
%OFA0B0*%
%FSLAX24Y24*%
%IPPOS*%
%LPD*%
%AMOC8*
5,1,8,0,0,1.08239X$1,22.5*
%
%ADD10C,0.0160*%
%ADD11R,0.0474X0.0631*%
%ADD12R,0.2206X0.2521*%
%ADD13R,0.0474X0.0710*%
%ADD14R,0.0592X0.0671*%
%ADD15R,0.0671X0.0592*%
%ADD16C,0.2252*%
%ADD17R,0.0631X0.0474*%
%ADD18R,0.0552X0.0474*%
%ADD19R,0.0352X0.0470*%
%ADD20C,0.1379*%
%ADD21OC8,0.0600*%
%ADD22OC8,0.0840*%
%ADD23C,0.0907*%
D10*
X024836Y016268D02*
X024836Y017318D01*
X024886Y017368D01*
X028886Y017368D01*
X029986Y016268D01*
X029986Y015018D01*
X028536Y015018D01*
X027286Y016268D01*
X024836Y016268D01*
X024836Y016313D02*
X029941Y016313D01*
X029986Y016155D02*
X027400Y016155D01*
X027558Y015996D02*
X029986Y015996D01*
X029986Y015838D02*
X027717Y015838D01*
X027875Y015679D02*
X029986Y015679D01*
X029986Y015521D02*
X028034Y015521D01*
X028192Y015362D02*
X029986Y015362D01*
X029986Y015204D02*
X028351Y015204D01*
X028509Y015045D02*
X029986Y015045D01*
X029783Y016472D02*
X024836Y016472D01*
X024836Y016630D02*
X029624Y016630D01*
X029466Y016789D02*
X024836Y016789D01*
X024836Y016947D02*
X029307Y016947D01*
X029149Y017106D02*
X024836Y017106D01*
X024836Y017264D02*
X028990Y017264D01*
X029236Y019068D02*
X024886Y019068D01*
X024886Y020218D01*
X028636Y020218D01*
X029186Y020768D01*
X033286Y020768D01*
X034686Y019368D01*
X034686Y018818D01*
X034636Y018868D01*
X033686Y018868D01*
X032736Y019818D01*
X029986Y019818D01*
X029236Y019068D01*
X029335Y019166D02*
X024886Y019166D01*
X024886Y019325D02*
X029493Y019325D01*
X029652Y019483D02*
X024886Y019483D01*
X024886Y019642D02*
X029810Y019642D01*
X029969Y019800D02*
X024886Y019800D01*
X024886Y019959D02*
X034096Y019959D01*
X033937Y020117D02*
X024886Y020117D01*
X028694Y020276D02*
X033779Y020276D01*
X033620Y020434D02*
X028853Y020434D01*
X029011Y020593D02*
X033462Y020593D01*
X033303Y020751D02*
X029170Y020751D01*
X031086Y018868D02*
X031236Y019018D01*
X032186Y019018D01*
X032286Y018918D01*
X032286Y018418D01*
X032736Y017968D01*
X032736Y017468D01*
X033486Y016718D01*
X034236Y016718D01*
X034386Y016568D01*
X034386Y014668D01*
X032736Y014668D01*
X032486Y014918D01*
X032486Y016818D01*
X031586Y017718D01*
X031436Y017718D01*
X031086Y018068D01*
X031086Y018868D01*
X031086Y018849D02*
X032286Y018849D01*
X032286Y018691D02*
X031086Y018691D01*
X031086Y018532D02*
X032286Y018532D01*
X032331Y018374D02*
X031086Y018374D01*
X031086Y018215D02*
X032489Y018215D01*
X032648Y018057D02*
X031098Y018057D01*
X031256Y017898D02*
X032736Y017898D01*
X032736Y017740D02*
X031415Y017740D01*
X031723Y017581D02*
X032736Y017581D01*
X032782Y017423D02*
X031882Y017423D01*
X032040Y017264D02*
X032940Y017264D01*
X033099Y017106D02*
X032199Y017106D01*
X032357Y016947D02*
X033257Y016947D01*
X033416Y016789D02*
X032486Y016789D01*
X032486Y016630D02*
X034324Y016630D01*
X034386Y016472D02*
X032486Y016472D01*
X032486Y016313D02*
X034386Y016313D01*
X034386Y016155D02*
X032486Y016155D01*
X032486Y015996D02*
X034386Y015996D01*
X034386Y015838D02*
X032486Y015838D01*
X032486Y015679D02*
X034386Y015679D01*
X034386Y015521D02*
X032486Y015521D01*
X032486Y015362D02*
X034386Y015362D01*
X034386Y015204D02*
X032486Y015204D01*
X032486Y015045D02*
X034386Y015045D01*
X034386Y014887D02*
X032518Y014887D01*
X032676Y014728D02*
X034386Y014728D01*
X034655Y018849D02*
X034686Y018849D01*
X034686Y019008D02*
X033547Y019008D01*
X033388Y019166D02*
X034686Y019166D01*
X034686Y019325D02*
X033230Y019325D01*
X033071Y019483D02*
X034571Y019483D01*
X034413Y019642D02*
X032913Y019642D01*
X032754Y019800D02*
X034254Y019800D01*
X032197Y019008D02*
X031226Y019008D01*
D11*
X029586Y011951D03*
X029212Y011085D03*
X029961Y011085D03*
X030662Y011151D03*
X031411Y011151D03*
X031036Y010285D03*
X030361Y009335D03*
X029612Y009335D03*
X029986Y010201D03*
X025861Y007801D03*
X025112Y007801D03*
X024461Y007735D03*
X023712Y007735D03*
X024086Y008601D03*
X025486Y006935D03*
X025036Y011135D03*
X024662Y012001D03*
X025411Y012001D03*
X036712Y010035D03*
X037461Y010035D03*
X037086Y010901D03*
D12*
X030667Y015523D03*
D13*
X031564Y018397D03*
X029769Y018397D03*
D14*
X023712Y006168D03*
X024461Y006168D03*
X025162Y006168D03*
X025911Y006168D03*
X024461Y006968D03*
X023712Y006968D03*
X025112Y008568D03*
X025861Y008568D03*
X026211Y009318D03*
X025462Y009318D03*
X025812Y010818D03*
X026561Y010818D03*
X030662Y011968D03*
X031411Y011968D03*
X033012Y008518D03*
X033761Y008518D03*
X033761Y007718D03*
X033012Y007718D03*
X032161Y007718D03*
X031412Y007718D03*
X035262Y006718D03*
X036011Y006718D03*
X036011Y009318D03*
X035262Y009318D03*
X036762Y009318D03*
X037511Y009318D03*
D15*
X037436Y008242D03*
X036686Y008242D03*
X036686Y007494D03*
X037436Y007494D03*
X034586Y007544D03*
X034586Y008292D03*
X033386Y009744D03*
X033386Y010492D03*
X033386Y011244D03*
X033386Y011992D03*
X034186Y011992D03*
X034186Y011244D03*
X034986Y011244D03*
X034986Y011992D03*
X035986Y010842D03*
X035986Y010094D03*
X032586Y009744D03*
X032586Y010492D03*
X032586Y011244D03*
X032586Y011992D03*
X028486Y011192D03*
X028486Y010444D03*
X027686Y010194D03*
X027686Y010942D03*
X024736Y010092D03*
X024736Y009344D03*
X023936Y009344D03*
X023936Y010092D03*
D16*
X024829Y016793D03*
X024829Y019628D03*
X028097Y019628D03*
X028097Y016793D03*
X034121Y018092D03*
X034121Y015257D03*
D17*
X034153Y010492D03*
X034153Y009744D03*
X035020Y010118D03*
X032220Y006942D03*
X032220Y006194D03*
X031353Y006568D03*
D18*
X032993Y006568D03*
X033780Y006174D03*
X033780Y006962D03*
D19*
X035262Y007406D03*
X036011Y007406D03*
X036011Y008426D03*
X035636Y008426D03*
X035262Y008426D03*
D20*
X036955Y015809D03*
X036955Y017777D03*
D21*
X032062Y008518D03*
X031062Y008518D03*
D22*
X027736Y011818D03*
X026536Y011818D03*
X026536Y014218D03*
X027736Y014218D03*
X036086Y014218D03*
X037286Y014218D03*
X037286Y011818D03*
X036086Y011818D03*
D23*
X036916Y020494D03*
X024318Y014273D03*
M02*
