G75*
G70*
%OFA0B0*%
%FSLAX24Y24*%
%IPPOS*%
%LPD*%
%AMOC8*
5,1,8,0,0,1.08239X$1,22.5*
%
%ADD10R,0.0394X0.0551*%
%ADD11R,0.2126X0.2441*%
%ADD12R,0.0394X0.0630*%
%ADD13R,0.0512X0.0591*%
%ADD14R,0.0591X0.0512*%
%ADD15C,0.2172*%
%ADD16R,0.0551X0.0394*%
%ADD17R,0.0472X0.0394*%
%ADD18R,0.0272X0.0390*%
%ADD19C,0.1299*%
%ADD20OC8,0.0520*%
%ADD21OC8,0.0760*%
%ADD22C,0.0160*%
%ADD23C,0.0320*%
%ADD24C,0.0100*%
%ADD25C,0.0240*%
%ADD26C,0.0500*%
%ADD27C,0.0120*%
%ADD28C,0.0760*%
%ADD29C,0.0317*%
%ADD30C,0.0400*%
%ADD31C,0.0110*%
%ADD32C,0.0660*%
D10*
X023712Y007735D03*
X024461Y007735D03*
X024086Y008601D03*
X025112Y007801D03*
X025861Y007801D03*
X025486Y006935D03*
X029612Y009335D03*
X030361Y009335D03*
X029986Y010201D03*
X029961Y011085D03*
X029212Y011085D03*
X029586Y011951D03*
X030662Y011151D03*
X031411Y011151D03*
X031036Y010285D03*
X036712Y010035D03*
X037461Y010035D03*
X037086Y010901D03*
X025411Y012001D03*
X024662Y012001D03*
X025036Y011135D03*
D11*
X030667Y015523D03*
D12*
X031564Y018397D03*
X029769Y018397D03*
D13*
X030662Y011968D03*
X031411Y011968D03*
X033012Y008518D03*
X033761Y008518D03*
X033761Y007718D03*
X033012Y007718D03*
X032161Y007718D03*
X031412Y007718D03*
X035262Y006718D03*
X036011Y006718D03*
X036011Y009318D03*
X035262Y009318D03*
X036762Y009318D03*
X037511Y009318D03*
X026561Y010818D03*
X025812Y010818D03*
X025462Y009318D03*
X026211Y009318D03*
X025861Y008568D03*
X025112Y008568D03*
X024461Y006968D03*
X023712Y006968D03*
X023712Y006168D03*
X024461Y006168D03*
X025162Y006168D03*
X025911Y006168D03*
D14*
X024736Y009344D03*
X024736Y010092D03*
X023936Y010092D03*
X023936Y009344D03*
X027686Y010194D03*
X027686Y010942D03*
X028486Y011192D03*
X028486Y010444D03*
X032586Y010492D03*
X032586Y009744D03*
X033386Y009744D03*
X033386Y010492D03*
X033386Y011244D03*
X033386Y011992D03*
X034186Y011992D03*
X034186Y011244D03*
X034986Y011244D03*
X034986Y011992D03*
X035986Y010842D03*
X035986Y010094D03*
X036686Y008242D03*
X037436Y008242D03*
X037436Y007494D03*
X036686Y007494D03*
X034586Y007544D03*
X034586Y008292D03*
X032586Y011244D03*
X032586Y011992D03*
D15*
X034121Y015257D03*
X034121Y018092D03*
X028097Y016793D03*
X028097Y019628D03*
X024829Y019628D03*
X024829Y016793D03*
D16*
X034153Y010492D03*
X034153Y009744D03*
X035020Y010118D03*
X032220Y006942D03*
X032220Y006194D03*
X031353Y006568D03*
D17*
X032993Y006568D03*
X033780Y006174D03*
X033780Y006962D03*
D18*
X035262Y007406D03*
X036011Y007406D03*
X036011Y008426D03*
X035636Y008426D03*
X035262Y008426D03*
D19*
X036955Y015809D03*
X036955Y017777D03*
D20*
X032062Y008518D03*
X031062Y008518D03*
D21*
X027736Y011818D03*
X026536Y011818D03*
X026536Y014218D03*
X027736Y014218D03*
X036086Y014218D03*
X037286Y014218D03*
X037286Y011818D03*
X036086Y011818D03*
D22*
X035536Y011818D01*
X035386Y011968D01*
X034986Y011968D01*
X034186Y011968D01*
X033386Y011968D01*
X033386Y011992D01*
X033386Y011268D02*
X032586Y011268D01*
X032586Y011244D01*
X032562Y011268D01*
X031986Y011268D01*
X031486Y011918D02*
X032586Y011918D01*
X032586Y011992D01*
X033386Y011268D02*
X033386Y011244D01*
X033386Y011268D02*
X034186Y011268D01*
X034186Y011244D01*
X034186Y010492D01*
X034153Y010492D01*
X034153Y009744D02*
X034153Y009718D01*
X033386Y009718D01*
X033386Y009744D01*
X033386Y010492D02*
X033386Y010518D01*
X032636Y010518D01*
X032636Y010492D01*
X032586Y010492D01*
X032586Y009744D02*
X032561Y009718D01*
X030986Y009718D01*
X030636Y009368D01*
X030386Y009368D01*
X030361Y009342D01*
X030361Y009335D01*
X030327Y009368D01*
X029636Y009368D01*
X029612Y009344D01*
X029612Y009335D01*
X029586Y009361D01*
X029586Y009818D01*
X029036Y010368D01*
X028536Y010368D01*
X028486Y010418D01*
X028486Y010444D01*
X028736Y009768D02*
X029136Y009368D01*
X029136Y009318D01*
X029579Y009368D02*
X029612Y009335D01*
X028736Y009768D02*
X027686Y009768D01*
X027686Y010194D01*
X027686Y009768D02*
X027186Y009768D01*
X026706Y010248D01*
X025166Y010248D01*
X025036Y010118D01*
X024736Y010118D01*
X024736Y010092D01*
X023936Y010092D01*
X023936Y009344D02*
X023936Y009068D01*
X024086Y008918D01*
X024086Y008601D01*
X023686Y007768D02*
X023720Y007735D01*
X023736Y007735D01*
X023720Y007735D02*
X023712Y007735D01*
X024436Y007735D02*
X024461Y007735D01*
X024436Y007735D02*
X024436Y006968D01*
X024461Y006968D01*
X024436Y006968D02*
X024436Y006118D01*
X024461Y006118D01*
X024461Y006168D01*
X025162Y006168D01*
X025911Y006168D02*
X025936Y006168D01*
X025936Y006918D01*
X025503Y006918D01*
X025486Y006935D01*
X025936Y006918D02*
X026086Y006918D01*
X026286Y007118D01*
X026286Y008068D01*
X026316Y008098D01*
X026316Y008598D01*
X026486Y008768D01*
X026936Y008768D01*
X027236Y009068D01*
X028336Y009068D01*
X029936Y010218D02*
X029970Y010218D01*
X029986Y010201D01*
X029986Y010218D01*
X030436Y010218D01*
X029986Y010201D02*
X029986Y010268D01*
X031036Y010268D01*
X031036Y010285D01*
X031036Y010268D02*
X031536Y010268D01*
X031411Y011151D02*
X031411Y011968D01*
X031411Y011918D01*
X031486Y011918D01*
X030662Y011968D02*
X030662Y011151D01*
X030662Y011968D02*
X029586Y011968D01*
X029586Y011951D01*
X029036Y011718D02*
X028936Y011818D01*
X027736Y011818D01*
X027611Y011018D02*
X027686Y010942D01*
X027611Y011018D02*
X027336Y011018D01*
X026536Y011818D01*
X026561Y010818D02*
X026586Y010792D01*
X025170Y011135D02*
X025036Y011135D01*
X024662Y012001D02*
X024679Y012018D01*
X025427Y012018D01*
X025411Y012001D01*
X025420Y012001D01*
X025436Y012018D01*
X025427Y012018D01*
X026536Y014218D02*
X026536Y015168D01*
X028086Y015168D01*
X029806Y018168D02*
X029769Y018205D01*
X029769Y018397D01*
X029806Y018168D02*
X030336Y018168D01*
X031536Y016968D01*
X031756Y016968D01*
X031916Y016808D01*
X031916Y016538D01*
X031986Y016468D01*
X035786Y015268D02*
X036086Y015268D01*
X036086Y014218D01*
X037286Y014218D02*
X037286Y014868D01*
X037336Y014868D01*
X037317Y014857D02*
X037817Y014857D01*
X037817Y017776D01*
X036967Y017776D01*
X036967Y018866D01*
X034986Y011992D02*
X034986Y011968D01*
X034986Y011268D02*
X035286Y011268D01*
X035686Y010868D01*
X035961Y010868D01*
X035986Y010842D01*
X035986Y010918D01*
X037070Y010918D01*
X037086Y010901D01*
X036686Y010468D02*
X036586Y010568D01*
X036686Y010468D02*
X036686Y010068D01*
X036712Y010042D01*
X036712Y010035D01*
X036712Y009368D01*
X036762Y009318D01*
X036486Y008818D02*
X036686Y008618D01*
X036686Y008242D01*
X036486Y008818D02*
X035636Y008818D01*
X034786Y008818D01*
X034586Y008618D01*
X034586Y008292D01*
X035136Y007918D02*
X035986Y007918D01*
X036011Y007942D01*
X036011Y008426D01*
X035636Y008426D02*
X035636Y008818D01*
X035262Y009318D02*
X035262Y009642D01*
X035036Y009868D01*
X035036Y010101D01*
X035020Y010118D01*
X035986Y010094D02*
X035986Y009342D01*
X036011Y009318D01*
X037436Y009318D02*
X037436Y008242D01*
X037436Y007494D02*
X036686Y007494D01*
X036686Y007518D01*
X036336Y007518D01*
X036225Y007406D01*
X036011Y007406D01*
X035262Y007406D02*
X035262Y006718D01*
X034936Y006718D01*
X034786Y006568D01*
X033436Y006568D01*
X033336Y006218D02*
X033236Y006118D01*
X032686Y006118D01*
X032611Y006194D01*
X032220Y006194D01*
X032836Y006568D02*
X032486Y006918D01*
X032244Y006918D01*
X032220Y006942D01*
X032211Y006942D01*
X032186Y006918D01*
X032186Y007692D01*
X032161Y007718D01*
X033012Y007718D01*
X033761Y007718D02*
X033786Y007718D01*
X033786Y006962D01*
X033780Y006962D01*
X034280Y006962D01*
X034286Y006968D02*
X034536Y007218D01*
X034536Y007568D01*
X034286Y007568D01*
X034136Y007718D01*
X033786Y007718D01*
X033780Y007698D02*
X033761Y007718D01*
X033761Y008518D02*
X033736Y008542D01*
X033012Y008518D02*
X033012Y008518D01*
X032062Y008518D01*
X031412Y007718D02*
X031386Y007692D01*
X031353Y006568D02*
X031386Y006568D01*
X032836Y006568D02*
X032993Y006568D01*
X034536Y007568D02*
X034562Y007568D01*
X034786Y007568D01*
X035136Y007918D01*
X034586Y007544D02*
X034562Y007568D01*
X036011Y006718D02*
X036536Y006718D01*
X037486Y009294D02*
X037511Y009318D01*
X037461Y009368D01*
X037461Y010035D01*
X037436Y009318D02*
X037486Y009318D01*
X037486Y009294D01*
X034986Y011244D02*
X034986Y011268D01*
X034186Y011968D02*
X034186Y011992D01*
X029986Y011085D02*
X029961Y011085D01*
X029936Y011061D01*
X029936Y010218D01*
X029212Y011085D02*
X029129Y011168D01*
X028536Y011168D01*
X028512Y011192D01*
X028486Y011192D01*
X026786Y009168D02*
X026786Y009118D01*
X026786Y009168D02*
X026186Y009168D01*
X026186Y009118D01*
X026136Y009118D01*
X026136Y009068D01*
X025886Y008818D01*
X025886Y008568D01*
X025936Y008618D01*
X025936Y008568D01*
X025886Y008568D01*
X025886Y007827D01*
X025886Y007318D01*
X025936Y007268D01*
X025861Y007801D02*
X025886Y007827D01*
X025886Y008542D02*
X025861Y008568D01*
X025886Y008568D01*
X025112Y008568D02*
X025112Y008792D01*
X024736Y009168D01*
X024736Y009344D01*
X024761Y009344D01*
X024761Y009318D01*
X025462Y009318D01*
X026186Y009318D02*
X026186Y009168D01*
X026186Y009318D02*
X026211Y009318D01*
X026261Y009368D01*
X026186Y009368D02*
X026186Y009318D01*
X025112Y008568D02*
X025086Y008542D01*
X025086Y007818D01*
X025103Y007801D01*
X025112Y007801D01*
X023736Y006968D02*
X023712Y006968D01*
X023712Y006168D02*
X023736Y006168D01*
D23*
X025936Y007268D03*
X024536Y008718D03*
X025336Y009918D03*
X025186Y010568D03*
X026786Y009118D03*
X027086Y010618D03*
X027136Y012268D03*
X029086Y012268D03*
X029036Y011718D03*
X030086Y011618D03*
X030436Y010218D03*
X031536Y010268D03*
X031986Y012268D03*
X032786Y013868D03*
X033386Y013868D03*
X032486Y014468D03*
X032086Y014468D03*
X032486Y014868D03*
X032486Y015268D03*
X032486Y015668D03*
X032086Y015668D03*
X031986Y016468D03*
X032486Y017168D03*
X032486Y017568D03*
X032886Y017568D03*
X032886Y017168D03*
X032936Y019118D03*
X032686Y019568D03*
X032086Y019718D03*
X031586Y019718D03*
X031036Y019718D03*
X030536Y019518D03*
X029936Y019518D03*
X029536Y019118D03*
X028886Y018518D03*
X028836Y017968D03*
X029236Y017968D03*
X029236Y017568D03*
X029636Y017418D03*
X029636Y017018D03*
X029636Y017818D03*
X029286Y016018D03*
X029286Y015618D03*
X029286Y015218D03*
X027536Y015468D03*
X027036Y015468D03*
X026536Y015468D03*
X026036Y015468D03*
X025486Y015468D03*
X024036Y015518D03*
X023486Y015618D03*
X023486Y016118D03*
X023486Y016568D03*
X023486Y017018D03*
X023486Y017518D03*
X023636Y017968D03*
X023636Y018468D03*
X023486Y018968D03*
X023486Y019518D03*
X023486Y020118D03*
X023486Y020618D03*
X023836Y021018D03*
X024386Y021018D03*
X024986Y021018D03*
X025586Y021018D03*
X026186Y021018D03*
X026786Y021018D03*
X027386Y021018D03*
X027986Y021018D03*
X028586Y021018D03*
X029186Y021018D03*
X029786Y021018D03*
X030386Y021018D03*
X031036Y021018D03*
X031686Y021018D03*
X032286Y021018D03*
X032886Y021018D03*
X033486Y021018D03*
X034086Y021018D03*
X034686Y021018D03*
X035236Y021018D03*
X035786Y021018D03*
X037736Y019468D03*
X037736Y018918D03*
X037736Y018318D03*
X036286Y017068D03*
X035986Y017418D03*
X035636Y017818D03*
X035386Y013868D03*
X034836Y013868D03*
X035586Y012268D03*
X036586Y010568D03*
X037786Y010568D03*
X037786Y008768D03*
X037086Y008768D03*
X035986Y007918D03*
X036536Y006718D03*
X037736Y006968D03*
X037736Y005968D03*
X034586Y005968D03*
X034286Y006968D03*
X030936Y005968D03*
X028336Y009068D03*
X029136Y009318D03*
X023486Y011018D03*
X023486Y012268D03*
X025836Y017968D03*
X025836Y018468D03*
X026486Y018468D03*
X026486Y017968D03*
X027136Y017968D03*
X027136Y018468D03*
D24*
X026748Y012328D02*
X026325Y012328D01*
X026103Y012106D01*
X025978Y012230D01*
X025886Y012268D01*
X025737Y012268D01*
X025737Y012331D01*
X025661Y012407D01*
X025160Y012407D01*
X025084Y012331D01*
X025084Y012228D01*
X024989Y012228D01*
X024989Y012331D01*
X024913Y012407D01*
X024412Y012407D01*
X024336Y012331D01*
X024336Y011672D01*
X024412Y011596D01*
X024913Y011596D01*
X024989Y011672D01*
X024989Y011808D01*
X025084Y011808D01*
X025084Y011672D01*
X025160Y011596D01*
X025661Y011596D01*
X025737Y011672D01*
X025737Y011764D01*
X025825Y011676D01*
X025895Y011606D01*
X025987Y011568D01*
X026065Y011568D01*
X026325Y011308D01*
X026748Y011308D01*
X026749Y011309D01*
X026814Y011243D01*
X026251Y011243D01*
X026186Y011179D01*
X026122Y011243D01*
X025503Y011243D01*
X025459Y011199D01*
X025363Y011295D01*
X025363Y011464D01*
X025287Y011541D01*
X024786Y011541D01*
X024710Y011464D01*
X024710Y010818D01*
X023487Y010818D01*
X023395Y010780D01*
X023336Y010722D01*
X023336Y012418D01*
X037897Y012418D01*
X037897Y005812D01*
X030736Y005812D01*
X030736Y008263D01*
X030892Y008108D01*
X031032Y008108D01*
X031032Y008488D01*
X031092Y008488D01*
X031092Y008132D01*
X031027Y008067D01*
X031027Y007369D01*
X031103Y007293D01*
X031136Y007293D01*
X031136Y006895D01*
X031024Y006895D01*
X030948Y006819D01*
X030948Y006317D01*
X031024Y006241D01*
X031683Y006241D01*
X031759Y006317D01*
X031759Y006819D01*
X031683Y006895D01*
X031636Y006895D01*
X031636Y007293D01*
X031722Y007293D01*
X031786Y007357D01*
X031851Y007293D01*
X031976Y007293D01*
X031976Y007269D01*
X031890Y007269D01*
X031814Y007193D01*
X031814Y006691D01*
X031890Y006615D01*
X032492Y006615D01*
X032627Y006481D01*
X032627Y006404D01*
X032625Y006404D01*
X032625Y006445D01*
X032549Y006521D01*
X031890Y006521D01*
X031814Y006445D01*
X031814Y005943D01*
X031890Y005867D01*
X032549Y005867D01*
X032595Y005913D01*
X032600Y005908D01*
X033323Y005908D01*
X033414Y005999D01*
X033414Y005924D01*
X033490Y005848D01*
X034070Y005848D01*
X034146Y005924D01*
X034146Y006358D01*
X034873Y006358D01*
X034880Y006365D01*
X034953Y006293D01*
X035572Y006293D01*
X035626Y006346D01*
X035635Y006331D01*
X035663Y006303D01*
X035697Y006283D01*
X035735Y006273D01*
X035961Y006273D01*
X035961Y006668D01*
X036061Y006668D01*
X036061Y006768D01*
X036416Y006768D01*
X036416Y007033D01*
X036406Y007071D01*
X036386Y007105D01*
X036384Y007108D01*
X037036Y007108D01*
X037061Y007134D01*
X037087Y007108D01*
X037786Y007108D01*
X037862Y007184D01*
X037862Y007804D01*
X037798Y007868D01*
X037862Y007932D01*
X037862Y008552D01*
X037786Y008628D01*
X037646Y008628D01*
X037646Y008893D01*
X037820Y008893D01*
X037896Y008969D01*
X037896Y009667D01*
X037820Y009743D01*
X037787Y009743D01*
X037787Y010364D01*
X037711Y010441D01*
X037210Y010441D01*
X037134Y010364D01*
X037134Y009710D01*
X037110Y009733D01*
X037076Y009753D01*
X037059Y009758D01*
X037059Y009987D01*
X036761Y009987D01*
X036761Y010083D01*
X037059Y010083D01*
X037059Y010330D01*
X037049Y010369D01*
X037029Y010403D01*
X037001Y010431D01*
X036967Y010450D01*
X036929Y010461D01*
X036761Y010461D01*
X036761Y010083D01*
X036664Y010083D01*
X036664Y010461D01*
X036496Y010461D01*
X036458Y010450D01*
X036424Y010431D01*
X036404Y010411D01*
X036348Y010468D01*
X036412Y010532D01*
X036412Y010708D01*
X036760Y010708D01*
X036760Y010572D01*
X036836Y010496D01*
X037337Y010496D01*
X037413Y010572D01*
X037413Y011231D01*
X037356Y011288D01*
X037506Y011288D01*
X037816Y011599D01*
X037816Y011770D01*
X037335Y011770D01*
X037335Y011867D01*
X037238Y011867D01*
X037238Y012348D01*
X037067Y012348D01*
X036756Y012038D01*
X036756Y011867D01*
X037238Y011867D01*
X037238Y011770D01*
X036756Y011770D01*
X036756Y011599D01*
X037048Y011307D01*
X036836Y011307D01*
X036760Y011231D01*
X036760Y011128D01*
X036412Y011128D01*
X036412Y011152D01*
X036336Y011228D01*
X035637Y011228D01*
X035630Y011221D01*
X035412Y011440D01*
X035412Y011554D01*
X035348Y011618D01*
X035394Y011664D01*
X035450Y011608D01*
X035576Y011608D01*
X035576Y011607D01*
X035875Y011308D01*
X036298Y011308D01*
X036596Y011607D01*
X036596Y012029D01*
X036298Y012328D01*
X035875Y012328D01*
X035599Y012052D01*
X035596Y012055D01*
X035473Y012178D01*
X035412Y012178D01*
X035412Y012302D01*
X035336Y012378D01*
X034637Y012378D01*
X034586Y012327D01*
X034536Y012378D01*
X033837Y012378D01*
X033786Y012327D01*
X033736Y012378D01*
X033037Y012378D01*
X032986Y012327D01*
X032936Y012378D01*
X032237Y012378D01*
X032161Y012302D01*
X032161Y012128D01*
X031796Y012128D01*
X031796Y012317D01*
X031720Y012393D01*
X031101Y012393D01*
X031036Y012329D01*
X030972Y012393D01*
X030353Y012393D01*
X030277Y012317D01*
X030277Y012178D01*
X029913Y012178D01*
X029913Y012281D01*
X029837Y012357D01*
X029336Y012357D01*
X029260Y012281D01*
X029260Y011905D01*
X029201Y011964D01*
X029094Y012008D01*
X029043Y012008D01*
X029023Y012028D01*
X028246Y012028D01*
X028246Y012029D01*
X027948Y012328D01*
X027525Y012328D01*
X027226Y012029D01*
X027226Y011607D01*
X027505Y011328D01*
X027337Y011328D01*
X027330Y011321D01*
X027046Y011606D01*
X027046Y011607D01*
X027046Y012029D01*
X026748Y012328D01*
X026766Y012310D02*
X027507Y012310D01*
X027409Y012212D02*
X026864Y012212D01*
X026963Y012113D02*
X027310Y012113D01*
X027226Y012015D02*
X027046Y012015D01*
X027046Y011916D02*
X027226Y011916D01*
X027226Y011818D02*
X027046Y011818D01*
X027046Y011719D02*
X027226Y011719D01*
X027226Y011621D02*
X027046Y011621D01*
X027129Y011522D02*
X027311Y011522D01*
X027228Y011424D02*
X027410Y011424D01*
X027334Y011325D02*
X027326Y011325D01*
X028163Y012113D02*
X029260Y012113D01*
X029260Y012015D02*
X029037Y012015D01*
X029249Y011916D02*
X029260Y011916D01*
X029260Y012212D02*
X028064Y012212D01*
X027966Y012310D02*
X029289Y012310D01*
X029884Y012310D02*
X030277Y012310D01*
X030277Y012212D02*
X029913Y012212D01*
X029913Y011758D02*
X030277Y011758D01*
X030277Y011619D01*
X030353Y011543D01*
X030398Y011543D01*
X030336Y011481D01*
X030336Y010822D01*
X030412Y010746D01*
X030913Y010746D01*
X030989Y010822D01*
X030989Y011481D01*
X030927Y011543D01*
X030972Y011543D01*
X031036Y011607D01*
X031101Y011543D01*
X031146Y011543D01*
X031084Y011481D01*
X031084Y010822D01*
X031160Y010746D01*
X031661Y010746D01*
X031737Y010822D01*
X031737Y011115D01*
X031742Y011105D01*
X031823Y011023D01*
X031929Y010979D01*
X032044Y010979D01*
X032150Y011023D01*
X032161Y011034D01*
X032161Y010934D01*
X032227Y010868D01*
X032161Y010802D01*
X032161Y010182D01*
X032225Y010118D01*
X032161Y010054D01*
X032161Y009928D01*
X031360Y009928D01*
X031373Y009952D01*
X031383Y009990D01*
X031383Y010237D01*
X031085Y010237D01*
X031085Y010333D01*
X031383Y010333D01*
X031383Y010580D01*
X031373Y010619D01*
X031353Y010653D01*
X031325Y010681D01*
X031291Y010700D01*
X031253Y010711D01*
X031085Y010711D01*
X031085Y010333D01*
X030988Y010333D01*
X030988Y010237D01*
X030690Y010237D01*
X030690Y009990D01*
X030700Y009952D01*
X030720Y009917D01*
X030748Y009889D01*
X030782Y009870D01*
X030820Y009859D01*
X030831Y009859D01*
X030776Y009805D01*
X030662Y009690D01*
X030611Y009741D01*
X030110Y009741D01*
X030034Y009664D01*
X030034Y009578D01*
X029939Y009578D01*
X029939Y009664D01*
X029863Y009741D01*
X029796Y009741D01*
X029796Y009776D01*
X029938Y009776D01*
X029938Y010153D01*
X029640Y010153D01*
X029640Y010062D01*
X029246Y010455D01*
X029123Y010578D01*
X028912Y010578D01*
X028912Y010729D01*
X028962Y010679D01*
X029463Y010679D01*
X029539Y010756D01*
X029539Y011414D01*
X029463Y011491D01*
X029219Y011491D01*
X029282Y011554D01*
X029296Y011586D01*
X029336Y011546D01*
X029837Y011546D01*
X029913Y011622D01*
X029913Y011758D01*
X029913Y011719D02*
X030277Y011719D01*
X030277Y011621D02*
X029912Y011621D01*
X029912Y011511D02*
X029744Y011511D01*
X029706Y011500D01*
X029672Y011481D01*
X029644Y011453D01*
X029624Y011419D01*
X029614Y011380D01*
X029614Y011133D01*
X029912Y011133D01*
X029912Y011037D01*
X029614Y011037D01*
X029614Y010790D01*
X029624Y010752D01*
X029644Y010717D01*
X029672Y010689D01*
X029706Y010670D01*
X029744Y010659D01*
X029912Y010659D01*
X029912Y011037D01*
X030009Y011037D01*
X030009Y011133D01*
X030307Y011133D01*
X030307Y011380D01*
X030297Y011419D01*
X030277Y011453D01*
X030249Y011481D01*
X030215Y011500D01*
X030177Y011511D01*
X030009Y011511D01*
X030009Y011133D01*
X029912Y011133D01*
X029912Y011511D01*
X029912Y011424D02*
X030009Y011424D01*
X030009Y011325D02*
X029912Y011325D01*
X029912Y011227D02*
X030009Y011227D01*
X030009Y011128D02*
X030336Y011128D01*
X030307Y011037D02*
X030009Y011037D01*
X030009Y010659D01*
X030177Y010659D01*
X030215Y010670D01*
X030249Y010689D01*
X030277Y010717D01*
X030297Y010752D01*
X030307Y010790D01*
X030307Y011037D01*
X030307Y011030D02*
X030336Y011030D01*
X030336Y010931D02*
X030307Y010931D01*
X030307Y010833D02*
X030336Y010833D01*
X030287Y010734D02*
X032161Y010734D01*
X032161Y010636D02*
X031363Y010636D01*
X031383Y010537D02*
X032161Y010537D01*
X032161Y010439D02*
X031383Y010439D01*
X031383Y010340D02*
X032161Y010340D01*
X032161Y010242D02*
X031085Y010242D01*
X030988Y010242D02*
X030035Y010242D01*
X030035Y010250D02*
X030333Y010250D01*
X030333Y010497D01*
X030323Y010535D01*
X030303Y010569D01*
X030275Y010597D01*
X030241Y010617D01*
X030203Y010627D01*
X030035Y010627D01*
X030035Y010250D01*
X029938Y010250D01*
X029938Y010627D01*
X029770Y010627D01*
X029732Y010617D01*
X029698Y010597D01*
X029670Y010569D01*
X029650Y010535D01*
X029640Y010497D01*
X029640Y010250D01*
X029938Y010250D01*
X029938Y010153D01*
X030035Y010153D01*
X030035Y010250D01*
X030035Y010340D02*
X029938Y010340D01*
X029938Y010242D02*
X029460Y010242D01*
X029361Y010340D02*
X029640Y010340D01*
X029640Y010439D02*
X029263Y010439D01*
X029164Y010537D02*
X029651Y010537D01*
X029634Y010734D02*
X029518Y010734D01*
X029539Y010833D02*
X029614Y010833D01*
X029614Y010931D02*
X029539Y010931D01*
X029539Y011030D02*
X029614Y011030D01*
X029539Y011128D02*
X029912Y011128D01*
X029912Y011030D02*
X030009Y011030D01*
X030009Y010931D02*
X029912Y010931D01*
X029912Y010833D02*
X030009Y010833D01*
X030009Y010734D02*
X029912Y010734D01*
X029938Y010537D02*
X030035Y010537D01*
X030035Y010439D02*
X029938Y010439D01*
X029938Y010143D02*
X030035Y010143D01*
X030035Y010153D02*
X030035Y009776D01*
X030203Y009776D01*
X030241Y009786D01*
X030275Y009806D01*
X030303Y009833D01*
X030323Y009868D01*
X030333Y009906D01*
X030333Y010153D01*
X030035Y010153D01*
X030035Y010045D02*
X029938Y010045D01*
X029938Y009946D02*
X030035Y009946D01*
X030035Y009848D02*
X029938Y009848D01*
X029796Y009749D02*
X030721Y009749D01*
X030819Y009848D02*
X030312Y009848D01*
X030333Y009946D02*
X030703Y009946D01*
X030690Y010045D02*
X030333Y010045D01*
X030333Y010143D02*
X030690Y010143D01*
X030690Y010333D02*
X030988Y010333D01*
X030988Y010711D01*
X030820Y010711D01*
X030782Y010700D01*
X030748Y010681D01*
X030720Y010653D01*
X030700Y010619D01*
X030690Y010580D01*
X030690Y010333D01*
X030690Y010340D02*
X030333Y010340D01*
X030333Y010439D02*
X030690Y010439D01*
X030690Y010537D02*
X030322Y010537D01*
X030710Y010636D02*
X028912Y010636D01*
X029558Y010143D02*
X029640Y010143D01*
X029939Y009651D02*
X030034Y009651D01*
X030988Y010340D02*
X031085Y010340D01*
X031085Y010439D02*
X030988Y010439D01*
X030988Y010537D02*
X031085Y010537D01*
X031085Y010636D02*
X030988Y010636D01*
X030989Y010833D02*
X031084Y010833D01*
X031084Y010931D02*
X030989Y010931D01*
X030989Y011030D02*
X031084Y011030D01*
X031084Y011128D02*
X030989Y011128D01*
X030989Y011227D02*
X031084Y011227D01*
X031084Y011325D02*
X030989Y011325D01*
X030989Y011424D02*
X031084Y011424D01*
X031125Y011522D02*
X030948Y011522D01*
X030377Y011522D02*
X029251Y011522D01*
X029530Y011424D02*
X029627Y011424D01*
X029614Y011325D02*
X029539Y011325D01*
X029539Y011227D02*
X029614Y011227D01*
X030307Y011227D02*
X030336Y011227D01*
X030336Y011325D02*
X030307Y011325D01*
X030294Y011424D02*
X030336Y011424D01*
X031383Y010143D02*
X032200Y010143D01*
X032161Y010045D02*
X031383Y010045D01*
X031370Y009946D02*
X032161Y009946D01*
X032192Y010833D02*
X031737Y010833D01*
X031737Y010931D02*
X032164Y010931D01*
X032156Y011030D02*
X032161Y011030D01*
X031817Y011030D02*
X031737Y011030D01*
X031796Y012212D02*
X032161Y012212D01*
X032169Y012310D02*
X031796Y012310D01*
X035404Y012310D02*
X035857Y012310D01*
X035759Y012212D02*
X035412Y012212D01*
X035538Y012113D02*
X035660Y012113D01*
X035596Y012055D02*
X035596Y012055D01*
X035437Y011621D02*
X035350Y011621D01*
X035412Y011522D02*
X035661Y011522D01*
X035760Y011424D02*
X035428Y011424D01*
X035526Y011325D02*
X035858Y011325D01*
X035636Y011227D02*
X035625Y011227D01*
X036315Y011325D02*
X037030Y011325D01*
X036931Y011424D02*
X036413Y011424D01*
X036512Y011522D02*
X036833Y011522D01*
X036756Y011621D02*
X036596Y011621D01*
X036596Y011719D02*
X036756Y011719D01*
X036596Y011818D02*
X037238Y011818D01*
X037335Y011818D02*
X037897Y011818D01*
X037816Y011867D02*
X037816Y012038D01*
X037506Y012348D01*
X037335Y012348D01*
X037335Y011867D01*
X037816Y011867D01*
X037816Y011916D02*
X037897Y011916D01*
X037897Y012015D02*
X037816Y012015D01*
X037741Y012113D02*
X037897Y012113D01*
X037897Y012212D02*
X037643Y012212D01*
X037544Y012310D02*
X037897Y012310D01*
X037897Y012409D02*
X023336Y012409D01*
X023336Y012310D02*
X024336Y012310D01*
X024336Y012212D02*
X023336Y012212D01*
X023336Y012113D02*
X024336Y012113D01*
X024336Y012015D02*
X023336Y012015D01*
X023336Y011916D02*
X024336Y011916D01*
X024336Y011818D02*
X023336Y011818D01*
X023336Y011719D02*
X024336Y011719D01*
X024387Y011621D02*
X023336Y011621D01*
X023336Y011522D02*
X024767Y011522D01*
X024710Y011424D02*
X023336Y011424D01*
X023336Y011325D02*
X024710Y011325D01*
X024710Y011227D02*
X023336Y011227D01*
X023336Y011128D02*
X024710Y011128D01*
X024710Y011030D02*
X023336Y011030D01*
X023336Y010931D02*
X024710Y010931D01*
X024710Y010833D02*
X023336Y010833D01*
X023336Y010734D02*
X023349Y010734D01*
X024938Y011621D02*
X025135Y011621D01*
X025084Y011719D02*
X024989Y011719D01*
X025306Y011522D02*
X026111Y011522D01*
X026210Y011424D02*
X025363Y011424D01*
X025363Y011325D02*
X026308Y011325D01*
X026234Y011227D02*
X026139Y011227D01*
X025880Y011621D02*
X025686Y011621D01*
X025737Y011719D02*
X025782Y011719D01*
X026095Y012113D02*
X026110Y012113D01*
X026209Y012212D02*
X025997Y012212D01*
X025737Y012310D02*
X026307Y012310D01*
X025084Y012310D02*
X024989Y012310D01*
X025432Y011227D02*
X025486Y011227D01*
X026261Y009368D02*
X026616Y009368D01*
X026616Y009535D01*
X026895Y009256D01*
X026987Y009218D01*
X027090Y009218D01*
X026850Y008978D01*
X026610Y008978D01*
X026616Y009003D01*
X026616Y009268D01*
X026261Y009268D01*
X026261Y009368D01*
X026261Y009355D02*
X026796Y009355D01*
X026894Y009257D02*
X026616Y009257D01*
X026616Y009158D02*
X027030Y009158D01*
X026931Y009060D02*
X026616Y009060D01*
X026261Y009060D02*
X026161Y009060D01*
X026161Y009007D02*
X026161Y009268D01*
X026261Y009268D01*
X026261Y008905D01*
X026256Y008921D01*
X026236Y008955D01*
X026209Y008983D01*
X026174Y009003D01*
X026161Y009007D01*
X026231Y008961D02*
X026261Y008961D01*
X026261Y009158D02*
X026161Y009158D01*
X026161Y009257D02*
X026261Y009257D01*
X026616Y009454D02*
X026697Y009454D01*
X025911Y008879D02*
X025911Y008618D01*
X026106Y008618D01*
X026106Y008518D01*
X025911Y008518D01*
X025911Y008618D01*
X025811Y008618D01*
X025811Y008931D01*
X025826Y008946D01*
X025835Y008931D01*
X025863Y008903D01*
X025897Y008883D01*
X025911Y008879D01*
X025911Y008863D02*
X025811Y008863D01*
X025811Y008764D02*
X025911Y008764D01*
X025911Y008666D02*
X025811Y008666D01*
X025911Y008567D02*
X026106Y008567D01*
X025911Y008518D02*
X025911Y008227D01*
X025909Y008227D01*
X025909Y007850D01*
X025812Y007850D01*
X025812Y008227D01*
X025811Y008227D01*
X025811Y008518D01*
X025911Y008518D01*
X025911Y008469D02*
X025811Y008469D01*
X025811Y008370D02*
X025911Y008370D01*
X025911Y008272D02*
X025811Y008272D01*
X025812Y008173D02*
X025909Y008173D01*
X025909Y008075D02*
X025812Y008075D01*
X025812Y007976D02*
X025909Y007976D01*
X025909Y007878D02*
X025812Y007878D01*
X025812Y007850D02*
X025812Y007753D01*
X025514Y007753D01*
X025514Y007506D01*
X025524Y007468D01*
X025544Y007433D01*
X025572Y007406D01*
X025606Y007386D01*
X025644Y007376D01*
X025812Y007376D01*
X025812Y007753D01*
X025909Y007753D01*
X025909Y007376D01*
X026076Y007376D01*
X026076Y007205D01*
X026000Y007128D01*
X025813Y007128D01*
X025813Y007264D01*
X025737Y007341D01*
X025236Y007341D01*
X025160Y007264D01*
X025160Y006606D01*
X025172Y006593D01*
X024853Y006593D01*
X024811Y006552D01*
X024796Y006568D01*
X024846Y006619D01*
X024846Y007317D01*
X024773Y007391D01*
X024787Y007406D01*
X024787Y007470D01*
X024862Y007396D01*
X025363Y007396D01*
X025439Y007472D01*
X025439Y008131D01*
X025425Y008145D01*
X025476Y008196D01*
X025485Y008181D01*
X025513Y008153D01*
X025529Y008143D01*
X025524Y008135D01*
X025514Y008097D01*
X025514Y007850D01*
X025812Y007850D01*
X025812Y007779D02*
X025439Y007779D01*
X025439Y007681D02*
X025514Y007681D01*
X025514Y007582D02*
X025439Y007582D01*
X025439Y007484D02*
X025520Y007484D01*
X025608Y007385D02*
X024779Y007385D01*
X024846Y007287D02*
X025182Y007287D01*
X025160Y007188D02*
X024846Y007188D01*
X024846Y007090D02*
X025160Y007090D01*
X025160Y006991D02*
X024846Y006991D01*
X024846Y006893D02*
X025160Y006893D01*
X025160Y006794D02*
X024846Y006794D01*
X024846Y006696D02*
X025160Y006696D01*
X025168Y006597D02*
X024825Y006597D01*
X025813Y007188D02*
X026060Y007188D01*
X026076Y007287D02*
X025791Y007287D01*
X025812Y007385D02*
X025909Y007385D01*
X025909Y007484D02*
X025812Y007484D01*
X025812Y007582D02*
X025909Y007582D01*
X025909Y007681D02*
X025812Y007681D01*
X025514Y007878D02*
X025439Y007878D01*
X025439Y007976D02*
X025514Y007976D01*
X025514Y008075D02*
X025439Y008075D01*
X025453Y008173D02*
X025492Y008173D01*
X030736Y008173D02*
X030826Y008173D01*
X030736Y008075D02*
X031034Y008075D01*
X031032Y008173D02*
X031092Y008173D01*
X031092Y008272D02*
X031032Y008272D01*
X031032Y008370D02*
X031092Y008370D01*
X031092Y008469D02*
X031032Y008469D01*
X031027Y007976D02*
X030736Y007976D01*
X030736Y007878D02*
X031027Y007878D01*
X031027Y007779D02*
X030736Y007779D01*
X030736Y007681D02*
X031027Y007681D01*
X031027Y007582D02*
X030736Y007582D01*
X030736Y007484D02*
X031027Y007484D01*
X031027Y007385D02*
X030736Y007385D01*
X030736Y007287D02*
X031136Y007287D01*
X031136Y007188D02*
X030736Y007188D01*
X030736Y007090D02*
X031136Y007090D01*
X031136Y006991D02*
X030736Y006991D01*
X030736Y006893D02*
X031022Y006893D01*
X030948Y006794D02*
X030736Y006794D01*
X030736Y006696D02*
X030948Y006696D01*
X030948Y006597D02*
X030736Y006597D01*
X030736Y006499D02*
X030948Y006499D01*
X030948Y006400D02*
X030736Y006400D01*
X030736Y006302D02*
X030964Y006302D01*
X030736Y006203D02*
X031814Y006203D01*
X031814Y006105D02*
X030736Y006105D01*
X030736Y006006D02*
X031814Y006006D01*
X031850Y005908D02*
X030736Y005908D01*
X031743Y006302D02*
X031814Y006302D01*
X031814Y006400D02*
X031759Y006400D01*
X031759Y006499D02*
X031868Y006499D01*
X031759Y006597D02*
X032511Y006597D01*
X032571Y006499D02*
X032609Y006499D01*
X032807Y006895D02*
X032696Y007005D01*
X032625Y007076D01*
X032625Y007193D01*
X032549Y007269D01*
X032396Y007269D01*
X032396Y007293D01*
X032470Y007293D01*
X032546Y007369D01*
X032546Y007508D01*
X032627Y007508D01*
X032627Y007369D01*
X032703Y007293D01*
X033322Y007293D01*
X033376Y007346D01*
X033385Y007331D01*
X033413Y007303D01*
X033447Y007283D01*
X033455Y007281D01*
X033452Y007279D01*
X033424Y007251D01*
X033404Y007217D01*
X033394Y007178D01*
X033394Y007010D01*
X033732Y007010D01*
X033732Y006913D01*
X033394Y006913D01*
X033394Y006778D01*
X033359Y006778D01*
X033359Y006819D01*
X033283Y006895D01*
X032807Y006895D01*
X032710Y006991D02*
X033732Y006991D01*
X033732Y007010D02*
X033732Y007309D01*
X033711Y007309D01*
X033711Y007668D01*
X033811Y007668D01*
X034141Y007668D01*
X034141Y007768D01*
X033811Y007768D01*
X033811Y007668D01*
X033811Y007273D01*
X033829Y007273D01*
X033829Y007010D01*
X034166Y007010D01*
X034166Y007178D01*
X034156Y007217D01*
X034136Y007251D01*
X034109Y007279D01*
X034088Y007291D01*
X034109Y007303D01*
X034136Y007331D01*
X034141Y007339D01*
X034141Y007268D01*
X034151Y007230D01*
X034171Y007196D01*
X034199Y007168D01*
X034233Y007148D01*
X034271Y007138D01*
X034536Y007138D01*
X034536Y007494D01*
X034166Y007494D01*
X034166Y007594D01*
X034536Y007594D01*
X034536Y007494D01*
X034636Y007494D01*
X034636Y007138D01*
X034902Y007138D01*
X034940Y007148D01*
X034974Y007168D01*
X034997Y007191D01*
X034997Y007158D01*
X035011Y007143D01*
X034953Y007143D01*
X034877Y007067D01*
X034877Y006928D01*
X034850Y006928D01*
X034700Y006778D01*
X034166Y006778D01*
X034166Y006913D01*
X033829Y006913D01*
X033829Y007010D01*
X033732Y007010D01*
X033732Y007090D02*
X033829Y007090D01*
X033829Y007188D02*
X033732Y007188D01*
X033732Y007287D02*
X033811Y007287D01*
X033811Y007385D02*
X033711Y007385D01*
X033711Y007484D02*
X033811Y007484D01*
X033811Y007582D02*
X033711Y007582D01*
X033811Y007681D02*
X034141Y007681D01*
X034166Y007582D02*
X034536Y007582D01*
X034536Y007484D02*
X034636Y007484D01*
X034636Y007494D02*
X034636Y007594D01*
X034997Y007594D01*
X034997Y007494D01*
X034636Y007494D01*
X034636Y007582D02*
X034997Y007582D01*
X035032Y007690D02*
X035032Y007820D01*
X035022Y007858D01*
X035002Y007892D01*
X034974Y007920D01*
X034958Y007929D01*
X035012Y007982D01*
X035012Y008162D01*
X035073Y008101D01*
X035800Y008101D01*
X035817Y008091D01*
X035855Y008081D01*
X035993Y008081D01*
X035993Y008408D01*
X036028Y008408D01*
X036028Y008081D01*
X036166Y008081D01*
X036204Y008091D01*
X036238Y008111D01*
X036261Y008134D01*
X036261Y007932D01*
X036325Y007868D01*
X036261Y007804D01*
X036261Y007728D01*
X036250Y007728D01*
X036226Y007705D01*
X036200Y007731D01*
X035821Y007731D01*
X035745Y007655D01*
X035745Y007163D01*
X035735Y007163D01*
X035697Y007153D01*
X035663Y007133D01*
X035635Y007105D01*
X035626Y007090D01*
X035572Y007143D01*
X035514Y007143D01*
X035528Y007158D01*
X035528Y007655D01*
X035452Y007731D01*
X035073Y007731D01*
X035032Y007690D01*
X035032Y007779D02*
X036261Y007779D01*
X036316Y007878D02*
X035010Y007878D01*
X035006Y007976D02*
X036261Y007976D01*
X036261Y008075D02*
X035012Y008075D01*
X035503Y007681D02*
X035770Y007681D01*
X035745Y007582D02*
X035528Y007582D01*
X035528Y007484D02*
X035745Y007484D01*
X035745Y007385D02*
X035528Y007385D01*
X035528Y007287D02*
X035745Y007287D01*
X035745Y007188D02*
X035528Y007188D01*
X034997Y007188D02*
X034994Y007188D01*
X034899Y007090D02*
X034166Y007090D01*
X034164Y007188D02*
X034179Y007188D01*
X034141Y007287D02*
X034095Y007287D01*
X033829Y006991D02*
X034877Y006991D01*
X034814Y006893D02*
X034166Y006893D01*
X034166Y006794D02*
X034716Y006794D01*
X034636Y007188D02*
X034536Y007188D01*
X034536Y007287D02*
X034636Y007287D01*
X034636Y007385D02*
X034536Y007385D01*
X033441Y007287D02*
X032396Y007287D01*
X032546Y007385D02*
X032627Y007385D01*
X032627Y007484D02*
X032546Y007484D01*
X032625Y007188D02*
X033397Y007188D01*
X033394Y007090D02*
X032625Y007090D01*
X031976Y007287D02*
X031636Y007287D01*
X031636Y007188D02*
X031814Y007188D01*
X031814Y007090D02*
X031636Y007090D01*
X031636Y006991D02*
X031814Y006991D01*
X031814Y006893D02*
X031685Y006893D01*
X031759Y006794D02*
X031814Y006794D01*
X031814Y006696D02*
X031759Y006696D01*
X032589Y005908D02*
X033430Y005908D01*
X033336Y006218D02*
X033386Y006268D01*
X033386Y006468D02*
X033386Y006518D01*
X033436Y006568D01*
X033394Y006794D02*
X033359Y006794D01*
X033394Y006893D02*
X033285Y006893D01*
X034146Y006302D02*
X034944Y006302D01*
X035581Y006302D02*
X035665Y006302D01*
X035961Y006302D02*
X036061Y006302D01*
X036061Y006273D02*
X036286Y006273D01*
X036324Y006283D01*
X036359Y006303D01*
X036386Y006331D01*
X036406Y006365D01*
X036416Y006403D01*
X036416Y006668D01*
X036061Y006668D01*
X036061Y006273D01*
X036061Y006400D02*
X035961Y006400D01*
X035961Y006499D02*
X036061Y006499D01*
X036061Y006597D02*
X035961Y006597D01*
X036061Y006696D02*
X037897Y006696D01*
X037897Y006794D02*
X036416Y006794D01*
X036416Y006893D02*
X037897Y006893D01*
X037897Y006991D02*
X036416Y006991D01*
X036396Y007090D02*
X037897Y007090D01*
X037897Y007188D02*
X037862Y007188D01*
X037862Y007287D02*
X037897Y007287D01*
X037897Y007385D02*
X037862Y007385D01*
X037862Y007484D02*
X037897Y007484D01*
X037897Y007582D02*
X037862Y007582D01*
X037862Y007681D02*
X037897Y007681D01*
X037897Y007779D02*
X037862Y007779D01*
X037897Y007878D02*
X037807Y007878D01*
X037862Y007976D02*
X037897Y007976D01*
X037897Y008075D02*
X037862Y008075D01*
X037862Y008173D02*
X037897Y008173D01*
X037897Y008272D02*
X037862Y008272D01*
X037862Y008370D02*
X037897Y008370D01*
X037897Y008469D02*
X037862Y008469D01*
X037847Y008567D02*
X037897Y008567D01*
X037897Y008666D02*
X037646Y008666D01*
X037646Y008764D02*
X037897Y008764D01*
X037897Y008863D02*
X037646Y008863D01*
X037889Y008961D02*
X037897Y008961D01*
X037896Y009060D02*
X037897Y009060D01*
X037896Y009158D02*
X037897Y009158D01*
X037896Y009257D02*
X037897Y009257D01*
X037896Y009355D02*
X037897Y009355D01*
X037896Y009454D02*
X037897Y009454D01*
X037896Y009552D02*
X037897Y009552D01*
X037896Y009651D02*
X037897Y009651D01*
X037897Y009749D02*
X037787Y009749D01*
X037787Y009848D02*
X037897Y009848D01*
X037897Y009946D02*
X037787Y009946D01*
X037787Y010045D02*
X037897Y010045D01*
X037897Y010143D02*
X037787Y010143D01*
X037787Y010242D02*
X037897Y010242D01*
X037897Y010340D02*
X037787Y010340D01*
X037713Y010439D02*
X037897Y010439D01*
X037897Y010537D02*
X037379Y010537D01*
X037413Y010636D02*
X037897Y010636D01*
X037897Y010734D02*
X037413Y010734D01*
X037413Y010833D02*
X037897Y010833D01*
X037897Y010931D02*
X037413Y010931D01*
X037413Y011030D02*
X037897Y011030D01*
X037897Y011128D02*
X037413Y011128D01*
X037413Y011227D02*
X037897Y011227D01*
X037897Y011325D02*
X037543Y011325D01*
X037642Y011424D02*
X037897Y011424D01*
X037897Y011522D02*
X037740Y011522D01*
X037816Y011621D02*
X037897Y011621D01*
X037897Y011719D02*
X037816Y011719D01*
X037335Y011916D02*
X037238Y011916D01*
X037238Y012015D02*
X037335Y012015D01*
X037335Y012113D02*
X037238Y012113D01*
X037238Y012212D02*
X037335Y012212D01*
X037335Y012310D02*
X037238Y012310D01*
X037029Y012310D02*
X036316Y012310D01*
X036414Y012212D02*
X036930Y012212D01*
X036832Y012113D02*
X036513Y012113D01*
X036596Y012015D02*
X036756Y012015D01*
X036756Y011916D02*
X036596Y011916D01*
X036760Y011227D02*
X036337Y011227D01*
X036412Y011128D02*
X036760Y011128D01*
X036760Y010636D02*
X036412Y010636D01*
X036412Y010537D02*
X036794Y010537D01*
X036761Y010439D02*
X036664Y010439D01*
X036664Y010340D02*
X036761Y010340D01*
X036761Y010242D02*
X036664Y010242D01*
X036664Y010143D02*
X036761Y010143D01*
X036761Y010045D02*
X037134Y010045D01*
X037134Y010143D02*
X037059Y010143D01*
X037059Y010242D02*
X037134Y010242D01*
X037134Y010340D02*
X037057Y010340D01*
X036988Y010439D02*
X037208Y010439D01*
X037134Y009946D02*
X037059Y009946D01*
X037059Y009848D02*
X037134Y009848D01*
X037134Y009749D02*
X037083Y009749D01*
X036812Y009609D02*
X036812Y009368D01*
X036712Y009368D01*
X036712Y009763D01*
X036664Y009763D01*
X036664Y009987D01*
X036761Y009987D01*
X036761Y009609D01*
X036812Y009609D01*
X036812Y009552D02*
X036712Y009552D01*
X036712Y009454D02*
X036812Y009454D01*
X036812Y009268D02*
X036812Y008873D01*
X037038Y008873D01*
X037076Y008883D01*
X037110Y008903D01*
X037138Y008931D01*
X037147Y008946D01*
X037201Y008893D01*
X037226Y008893D01*
X037226Y008628D01*
X037087Y008628D01*
X037061Y008602D01*
X037036Y008628D01*
X036896Y008628D01*
X036896Y008705D01*
X036773Y008828D01*
X036712Y008889D01*
X036712Y009268D01*
X036812Y009268D01*
X036812Y009257D02*
X036712Y009257D01*
X036712Y009158D02*
X036812Y009158D01*
X036812Y009060D02*
X036712Y009060D01*
X036712Y008961D02*
X036812Y008961D01*
X036739Y008863D02*
X037226Y008863D01*
X037226Y008764D02*
X036837Y008764D01*
X036896Y008666D02*
X037226Y008666D01*
X036261Y008444D02*
X036261Y008408D01*
X036028Y008408D01*
X036028Y008444D01*
X036028Y008608D01*
X035993Y008608D01*
X035993Y008444D01*
X036028Y008444D01*
X036261Y008444D01*
X036028Y008469D02*
X035993Y008469D01*
X035993Y008444D02*
X035993Y008408D01*
X035902Y008408D01*
X035902Y008444D01*
X035993Y008444D01*
X035993Y008370D02*
X036028Y008370D01*
X036028Y008272D02*
X035993Y008272D01*
X035993Y008173D02*
X036028Y008173D01*
X036028Y008567D02*
X035993Y008567D01*
X036712Y009651D02*
X036761Y009651D01*
X036761Y009749D02*
X036712Y009749D01*
X036664Y009848D02*
X036761Y009848D01*
X036761Y009946D02*
X036664Y009946D01*
X036437Y010439D02*
X036377Y010439D01*
X036416Y006597D02*
X037897Y006597D01*
X037897Y006499D02*
X036416Y006499D01*
X036416Y006400D02*
X037897Y006400D01*
X037897Y006302D02*
X036356Y006302D01*
X037897Y006203D02*
X034146Y006203D01*
X034146Y006105D02*
X037897Y006105D01*
X037897Y006006D02*
X034146Y006006D01*
X034130Y005908D02*
X037897Y005908D01*
D25*
X023436Y008968D02*
X023436Y010468D01*
X023536Y010568D01*
X025186Y010568D01*
X025486Y010818D02*
X025812Y010818D01*
X025486Y010818D02*
X025170Y011135D01*
X025436Y012018D02*
X025836Y012018D01*
X026036Y011818D01*
X026536Y011818D01*
X026561Y010818D02*
X026886Y010818D01*
X027086Y010618D01*
X026586Y009918D02*
X025336Y009918D01*
X024536Y008718D02*
X024436Y008618D01*
X024103Y008618D01*
X023686Y008718D02*
X023686Y007768D01*
X023736Y007735D02*
X023736Y006968D01*
X023736Y006168D01*
X023686Y008718D02*
X023436Y008968D01*
X026586Y009918D02*
X027036Y009468D01*
X028536Y009468D01*
X028736Y009268D01*
X028736Y009118D01*
X029036Y008818D01*
X030636Y008818D01*
X030986Y009168D01*
X031536Y009168D01*
X031536Y008268D01*
X031412Y008144D01*
X031412Y007718D01*
X031386Y007692D02*
X031386Y006568D01*
X033736Y008542D02*
X033736Y008818D01*
X033386Y009168D01*
X033386Y009718D01*
X033386Y009168D02*
X031536Y009168D01*
X035767Y015809D02*
X036955Y015809D01*
D26*
X035767Y015809D02*
X035767Y015257D01*
X034121Y015257D01*
X032667Y015257D01*
X032667Y017407D01*
X034121Y018092D02*
X034160Y018092D01*
X034160Y018131D01*
X034121Y016439D02*
X034121Y015257D01*
X034121Y014155D01*
X030686Y015518D02*
X030686Y015523D01*
X030667Y015523D01*
X029160Y016793D02*
X028097Y016793D01*
X028097Y015157D01*
X029067Y015157D01*
X029067Y015523D01*
X028097Y016793D02*
X028097Y017895D01*
X028058Y018565D02*
X028058Y019628D01*
X028058Y020848D01*
X028097Y020848D01*
X028097Y019628D01*
X029867Y019628D01*
X029867Y020407D01*
X030986Y020407D01*
X030986Y020418D01*
X028058Y019628D02*
X024869Y019628D01*
X024869Y018565D01*
X024829Y017895D02*
X024829Y016793D01*
X023727Y016793D01*
X024829Y016793D02*
X024829Y015494D01*
X024829Y016793D02*
X028097Y016793D01*
X024869Y019628D02*
X024869Y020887D01*
X024829Y020887D01*
X024829Y019628D01*
X023648Y019628D01*
X035567Y019107D02*
X035567Y020407D01*
X035567Y019107D02*
X036967Y019107D01*
X036967Y018866D01*
D27*
X037015Y018586D02*
X037114Y018573D01*
X037216Y018545D01*
X037314Y018505D01*
X037406Y018452D01*
X037490Y018387D01*
X037565Y018312D01*
X037630Y018228D01*
X037683Y018136D01*
X037724Y018038D01*
X037751Y017935D01*
X037764Y017837D01*
X037015Y017837D01*
X036895Y017837D01*
X036895Y017717D01*
X036147Y017717D01*
X036160Y017619D01*
X036187Y017516D01*
X036228Y017418D01*
X036281Y017326D01*
X036345Y017242D01*
X036420Y017167D01*
X036505Y017103D01*
X036597Y017049D01*
X036695Y017009D01*
X036797Y016981D01*
X036895Y016968D01*
X036895Y017717D01*
X037015Y017717D01*
X037015Y016968D01*
X037114Y016981D01*
X037216Y017009D01*
X037314Y017049D01*
X037406Y017103D01*
X037490Y017167D01*
X037565Y017242D01*
X037630Y017326D01*
X037683Y017418D01*
X037724Y017516D01*
X037751Y017619D01*
X037764Y017717D01*
X037015Y017717D01*
X037015Y017837D01*
X037015Y018586D01*
X037015Y018490D02*
X036895Y018490D01*
X036895Y018586D02*
X036797Y018573D01*
X036695Y018545D01*
X036597Y018505D01*
X036505Y018452D01*
X036420Y018387D01*
X036345Y018312D01*
X036281Y018228D01*
X036228Y018136D01*
X036187Y018038D01*
X036160Y017935D01*
X036147Y017837D01*
X036895Y017837D01*
X036895Y018586D01*
X036895Y018372D02*
X037015Y018372D01*
X037015Y018253D02*
X036895Y018253D01*
X036895Y018135D02*
X037015Y018135D01*
X037015Y018016D02*
X036895Y018016D01*
X036895Y017898D02*
X037015Y017898D01*
X037015Y017779D02*
X037887Y017779D01*
X037887Y017661D02*
X037757Y017661D01*
X037731Y017542D02*
X037887Y017542D01*
X037887Y017424D02*
X037685Y017424D01*
X037614Y017305D02*
X037887Y017305D01*
X037887Y017187D02*
X037510Y017187D01*
X037347Y017068D02*
X037887Y017068D01*
X037887Y016950D02*
X036174Y016950D01*
X036217Y016907D02*
X035330Y017793D01*
X035351Y017883D01*
X035367Y018022D01*
X035367Y018032D01*
X034181Y018032D01*
X034181Y018152D01*
X035367Y018152D01*
X035367Y018162D01*
X035351Y018301D01*
X035320Y018438D01*
X035274Y018570D01*
X035213Y018696D01*
X035138Y018814D01*
X035051Y018924D01*
X034952Y019023D01*
X034843Y019110D01*
X034724Y019184D01*
X034598Y019245D01*
X034466Y019291D01*
X034330Y019322D01*
X034191Y019338D01*
X034181Y019338D01*
X034181Y018152D01*
X034061Y018152D01*
X034061Y019338D01*
X034051Y019338D01*
X033912Y019322D01*
X033775Y019291D01*
X033643Y019245D01*
X033517Y019184D01*
X033399Y019110D01*
X033289Y019023D01*
X033190Y018924D01*
X033103Y018814D01*
X033029Y018696D01*
X032968Y018570D01*
X032946Y018508D01*
X032786Y018668D01*
X032786Y019268D01*
X032486Y019568D01*
X030986Y019568D01*
X030586Y019168D01*
X030586Y018229D01*
X030428Y018388D01*
X030106Y018388D01*
X030106Y018770D01*
X030024Y018852D01*
X029514Y018852D01*
X029432Y018770D01*
X029432Y018357D01*
X023517Y018357D01*
X023346Y018527D01*
X023346Y020737D01*
X023760Y021150D01*
X036038Y021150D01*
X035972Y021078D01*
X035825Y020698D01*
X035825Y020290D01*
X035972Y019909D01*
X036247Y019608D01*
X036612Y019426D01*
X036612Y019426D01*
X037018Y019388D01*
X037411Y019500D01*
X037736Y019746D01*
X037736Y019746D01*
X037887Y019989D01*
X037887Y013841D01*
X037667Y013657D01*
X036898Y013657D01*
X036636Y013968D01*
X036636Y014368D01*
X036886Y014618D01*
X037217Y014957D01*
X037396Y015137D01*
X037403Y015139D01*
X037625Y015361D01*
X037745Y015652D01*
X037745Y015966D01*
X037625Y016256D01*
X037417Y016464D01*
X037417Y016707D01*
X037217Y016907D01*
X036217Y016907D01*
X036056Y017068D02*
X036564Y017068D01*
X036401Y017187D02*
X035937Y017187D01*
X035819Y017305D02*
X036297Y017305D01*
X036226Y017424D02*
X035700Y017424D01*
X035582Y017542D02*
X036180Y017542D01*
X036154Y017661D02*
X035463Y017661D01*
X035345Y017779D02*
X036895Y017779D01*
X036895Y017661D02*
X037015Y017661D01*
X037015Y017542D02*
X036895Y017542D01*
X036895Y017424D02*
X037015Y017424D01*
X037015Y017305D02*
X036895Y017305D01*
X036895Y017187D02*
X037015Y017187D01*
X037015Y017068D02*
X036895Y017068D01*
X036967Y016657D02*
X037015Y016609D01*
X037015Y015869D01*
X036895Y015869D01*
X036895Y015749D01*
X036147Y015749D01*
X036160Y015650D01*
X036187Y015548D01*
X036228Y015450D01*
X036281Y015358D01*
X036345Y015274D01*
X036420Y015199D01*
X036505Y015134D01*
X036597Y015081D01*
X036695Y015040D01*
X036797Y015013D01*
X036895Y015000D01*
X036895Y015749D01*
X037015Y015749D01*
X037015Y015097D01*
X036586Y014668D01*
X036400Y014668D01*
X036310Y014758D01*
X036125Y014758D01*
X036125Y014257D01*
X036048Y014257D01*
X036048Y014758D01*
X035863Y014758D01*
X035546Y014442D01*
X035546Y014257D01*
X036048Y014257D01*
X036048Y014180D01*
X035546Y014180D01*
X035546Y013994D01*
X035863Y013678D01*
X036048Y013678D01*
X036048Y014180D01*
X036125Y014180D01*
X036125Y013711D01*
X036086Y013668D01*
X032667Y013657D01*
X031917Y014407D01*
X031954Y016168D01*
X032046Y016168D01*
X032156Y016214D01*
X032241Y016298D01*
X032286Y016408D01*
X032286Y016528D01*
X032241Y016638D01*
X032156Y016722D01*
X032136Y016731D01*
X032136Y016899D01*
X032008Y017028D01*
X031848Y017188D01*
X031628Y017188D01*
X030817Y017999D01*
X030817Y019057D01*
X031067Y019307D01*
X032367Y019307D01*
X032567Y019107D01*
X032567Y018557D01*
X032895Y018229D01*
X032895Y017931D01*
X032978Y017619D01*
X033140Y017339D01*
X033368Y017111D01*
X033648Y016950D01*
X033959Y016866D01*
X034282Y016866D01*
X034594Y016950D01*
X034873Y017111D01*
X035102Y017339D01*
X035205Y017519D01*
X036067Y016657D01*
X036967Y016657D01*
X037015Y016594D02*
X036895Y016594D01*
X036895Y016617D02*
X036797Y016604D01*
X036695Y016577D01*
X036597Y016536D01*
X036505Y016483D01*
X036420Y016419D01*
X036345Y016344D01*
X036281Y016259D01*
X036228Y016168D01*
X036187Y016069D01*
X036160Y015967D01*
X036147Y015869D01*
X036895Y015869D01*
X036895Y016617D01*
X036759Y016594D02*
X032259Y016594D01*
X032286Y016476D02*
X033859Y016476D01*
X033912Y016488D02*
X033775Y016457D01*
X033643Y016410D01*
X033517Y016350D01*
X033399Y016275D01*
X033289Y016188D01*
X033190Y016089D01*
X033103Y015980D01*
X033029Y015861D01*
X032968Y015735D01*
X032922Y015603D01*
X032891Y015466D01*
X032875Y015327D01*
X032875Y015317D01*
X034061Y015317D01*
X034061Y015197D01*
X034181Y015197D01*
X034181Y014012D01*
X034191Y014012D01*
X034330Y014027D01*
X034466Y014058D01*
X034598Y014105D01*
X034724Y014165D01*
X034843Y014240D01*
X034952Y014327D01*
X035051Y014426D01*
X035138Y014535D01*
X035213Y014654D01*
X035274Y014780D01*
X035320Y014912D01*
X035351Y015048D01*
X035367Y015188D01*
X035367Y015197D01*
X034181Y015197D01*
X034181Y015317D01*
X035367Y015317D01*
X035367Y015327D01*
X035351Y015466D01*
X035320Y015603D01*
X035274Y015735D01*
X035213Y015861D01*
X035138Y015980D01*
X035051Y016089D01*
X034952Y016188D01*
X034843Y016275D01*
X034724Y016350D01*
X034598Y016410D01*
X034466Y016457D01*
X034330Y016488D01*
X034191Y016503D01*
X034181Y016503D01*
X034181Y015317D01*
X034061Y015317D01*
X034061Y016503D01*
X034051Y016503D01*
X033912Y016488D01*
X034061Y016476D02*
X034181Y016476D01*
X034181Y016357D02*
X034061Y016357D01*
X034061Y016239D02*
X034181Y016239D01*
X034181Y016120D02*
X034061Y016120D01*
X034061Y016002D02*
X034181Y016002D01*
X034181Y015883D02*
X034061Y015883D01*
X034061Y015765D02*
X034181Y015765D01*
X034181Y015646D02*
X034061Y015646D01*
X034061Y015528D02*
X034181Y015528D01*
X034181Y015409D02*
X034061Y015409D01*
X034061Y015291D02*
X031936Y015291D01*
X031938Y015409D02*
X032884Y015409D01*
X032905Y015528D02*
X031941Y015528D01*
X031943Y015646D02*
X032937Y015646D01*
X032982Y015765D02*
X031946Y015765D01*
X031948Y015883D02*
X033043Y015883D01*
X033121Y016002D02*
X031951Y016002D01*
X031953Y016120D02*
X033222Y016120D01*
X033353Y016239D02*
X032181Y016239D01*
X032265Y016357D02*
X033533Y016357D01*
X033648Y016950D02*
X032086Y016950D01*
X032136Y016831D02*
X035893Y016831D01*
X036011Y016713D02*
X032166Y016713D01*
X031968Y017068D02*
X033443Y017068D01*
X033293Y017187D02*
X031849Y017187D01*
X031511Y017305D02*
X033174Y017305D01*
X033091Y017424D02*
X031392Y017424D01*
X031274Y017542D02*
X033023Y017542D01*
X032967Y017661D02*
X031155Y017661D01*
X031037Y017779D02*
X032936Y017779D01*
X032904Y017898D02*
X030918Y017898D01*
X030817Y018016D02*
X031221Y018016D01*
X031219Y018020D02*
X031240Y017984D01*
X031269Y017954D01*
X031306Y017933D01*
X031347Y017922D01*
X031526Y017922D01*
X031526Y018358D01*
X031603Y018358D01*
X031603Y017922D01*
X031782Y017922D01*
X031823Y017933D01*
X031860Y017954D01*
X031889Y017984D01*
X031910Y018020D01*
X031921Y018061D01*
X031921Y018358D01*
X031603Y018358D01*
X031603Y018435D01*
X031921Y018435D01*
X031921Y018733D01*
X031910Y018774D01*
X031889Y018810D01*
X031860Y018840D01*
X031823Y018861D01*
X031782Y018872D01*
X031603Y018872D01*
X031603Y018435D01*
X031526Y018435D01*
X031526Y018358D01*
X031208Y018358D01*
X031208Y018061D01*
X031219Y018020D01*
X031208Y018135D02*
X030817Y018135D01*
X030817Y018253D02*
X031208Y018253D01*
X031208Y018435D02*
X031526Y018435D01*
X031526Y018872D01*
X031347Y018872D01*
X031306Y018861D01*
X031269Y018840D01*
X031240Y018810D01*
X031219Y018774D01*
X031208Y018733D01*
X031208Y018435D01*
X031208Y018490D02*
X030817Y018490D01*
X030817Y018372D02*
X031526Y018372D01*
X031603Y018372D02*
X032752Y018372D01*
X032634Y018490D02*
X031921Y018490D01*
X031921Y018609D02*
X032567Y018609D01*
X032567Y018727D02*
X031921Y018727D01*
X031850Y018846D02*
X032567Y018846D01*
X032567Y018964D02*
X030817Y018964D01*
X030817Y018846D02*
X031279Y018846D01*
X031208Y018727D02*
X030817Y018727D01*
X030817Y018609D02*
X031208Y018609D01*
X031526Y018609D02*
X031603Y018609D01*
X031603Y018727D02*
X031526Y018727D01*
X031526Y018846D02*
X031603Y018846D01*
X031603Y018490D02*
X031526Y018490D01*
X031526Y018253D02*
X031603Y018253D01*
X031603Y018135D02*
X031526Y018135D01*
X031526Y018016D02*
X031603Y018016D01*
X031908Y018016D02*
X032895Y018016D01*
X032895Y018135D02*
X031921Y018135D01*
X031921Y018253D02*
X032871Y018253D01*
X032846Y018609D02*
X032987Y018609D01*
X033048Y018727D02*
X032786Y018727D01*
X032786Y018846D02*
X033128Y018846D01*
X033231Y018964D02*
X032786Y018964D01*
X032786Y019083D02*
X033365Y019083D01*
X033552Y019201D02*
X032786Y019201D01*
X032735Y019320D02*
X033900Y019320D01*
X034061Y019320D02*
X034181Y019320D01*
X034181Y019201D02*
X034061Y019201D01*
X034061Y019083D02*
X034181Y019083D01*
X034181Y018964D02*
X034061Y018964D01*
X034061Y018846D02*
X034181Y018846D01*
X034181Y018727D02*
X034061Y018727D01*
X034061Y018609D02*
X034181Y018609D01*
X034181Y018490D02*
X034061Y018490D01*
X034061Y018372D02*
X034181Y018372D01*
X034181Y018253D02*
X034061Y018253D01*
X034181Y018135D02*
X036227Y018135D01*
X036181Y018016D02*
X035366Y018016D01*
X035353Y017898D02*
X036155Y017898D01*
X036300Y018253D02*
X035356Y018253D01*
X035335Y018372D02*
X036405Y018372D01*
X036571Y018490D02*
X035301Y018490D01*
X035255Y018609D02*
X037887Y018609D01*
X037887Y018727D02*
X035193Y018727D01*
X035113Y018846D02*
X037887Y018846D01*
X037887Y018964D02*
X035011Y018964D01*
X034877Y019083D02*
X037887Y019083D01*
X037887Y019201D02*
X034689Y019201D01*
X034341Y019320D02*
X037887Y019320D01*
X037887Y019438D02*
X037193Y019438D01*
X037018Y019388D02*
X037018Y019388D01*
X037411Y019500D02*
X037411Y019500D01*
X037486Y019557D02*
X037887Y019557D01*
X037887Y019675D02*
X037643Y019675D01*
X037736Y019746D02*
X037736Y019746D01*
X037766Y019794D02*
X037887Y019794D01*
X037887Y019912D02*
X037839Y019912D01*
X036588Y019438D02*
X032616Y019438D01*
X032498Y019557D02*
X036350Y019557D01*
X036247Y019608D02*
X036247Y019608D01*
X036186Y019675D02*
X028157Y019675D01*
X028157Y019688D02*
X029343Y019688D01*
X029343Y019698D01*
X029327Y019837D01*
X029296Y019973D01*
X029250Y020105D01*
X029189Y020231D01*
X029115Y020350D01*
X029028Y020459D01*
X028929Y020558D01*
X028819Y020645D01*
X028701Y020720D01*
X028575Y020780D01*
X028443Y020827D01*
X028306Y020858D01*
X028167Y020873D01*
X028157Y020873D01*
X028157Y019688D01*
X028037Y019688D01*
X028037Y020873D01*
X028027Y020873D01*
X027888Y020858D01*
X027752Y020827D01*
X027620Y020780D01*
X027494Y020720D01*
X027375Y020645D01*
X027266Y020558D01*
X027167Y020459D01*
X027079Y020350D01*
X027005Y020231D01*
X026944Y020105D01*
X026898Y019973D01*
X026867Y019837D01*
X026851Y019698D01*
X026851Y019688D01*
X028037Y019688D01*
X028037Y019568D01*
X026851Y019568D01*
X026851Y019558D01*
X026867Y019419D01*
X026898Y019282D01*
X026944Y019150D01*
X027005Y019024D01*
X027079Y018905D01*
X027167Y018796D01*
X027266Y018697D01*
X027375Y018610D01*
X027494Y018535D01*
X027620Y018475D01*
X027752Y018429D01*
X027888Y018397D01*
X028027Y018382D01*
X028037Y018382D01*
X028037Y019568D01*
X028157Y019568D01*
X028157Y019688D01*
X028157Y019794D02*
X028037Y019794D01*
X028037Y019912D02*
X028157Y019912D01*
X028157Y020031D02*
X028037Y020031D01*
X028037Y020149D02*
X028157Y020149D01*
X028157Y020268D02*
X028037Y020268D01*
X028037Y020386D02*
X028157Y020386D01*
X028157Y020505D02*
X028037Y020505D01*
X028037Y020623D02*
X028157Y020623D01*
X028157Y020742D02*
X028037Y020742D01*
X028037Y020860D02*
X028157Y020860D01*
X028285Y020860D02*
X035888Y020860D01*
X035842Y020742D02*
X028655Y020742D01*
X028847Y020623D02*
X035825Y020623D01*
X035825Y020505D02*
X028982Y020505D01*
X029086Y020386D02*
X035825Y020386D01*
X035833Y020268D02*
X029166Y020268D01*
X029229Y020149D02*
X035879Y020149D01*
X035925Y020031D02*
X029276Y020031D01*
X029310Y019912D02*
X035971Y019912D01*
X035972Y019909D02*
X035972Y019909D01*
X036078Y019794D02*
X029332Y019794D01*
X029343Y019568D02*
X028157Y019568D01*
X028157Y018382D01*
X028167Y018382D01*
X028306Y018397D01*
X028443Y018429D01*
X028575Y018475D01*
X028701Y018535D01*
X028819Y018610D01*
X028929Y018697D01*
X029028Y018796D01*
X029115Y018905D01*
X029189Y019024D01*
X029250Y019150D01*
X029296Y019282D01*
X029327Y019419D01*
X029343Y019558D01*
X029343Y019568D01*
X029343Y019557D02*
X030975Y019557D01*
X030857Y019438D02*
X029329Y019438D01*
X029305Y019320D02*
X030738Y019320D01*
X030620Y019201D02*
X029268Y019201D01*
X029217Y019083D02*
X030586Y019083D01*
X030586Y018964D02*
X029152Y018964D01*
X029067Y018846D02*
X029508Y018846D01*
X029432Y018727D02*
X028959Y018727D01*
X028817Y018609D02*
X029432Y018609D01*
X029432Y018490D02*
X028607Y018490D01*
X028157Y018490D02*
X028037Y018490D01*
X028037Y018609D02*
X028157Y018609D01*
X028157Y018727D02*
X028037Y018727D01*
X028037Y018846D02*
X028157Y018846D01*
X028157Y018964D02*
X028037Y018964D01*
X028037Y019083D02*
X028157Y019083D01*
X028157Y019201D02*
X028037Y019201D01*
X028037Y019320D02*
X028157Y019320D01*
X028157Y019438D02*
X028037Y019438D01*
X028037Y019557D02*
X028157Y019557D01*
X028037Y019675D02*
X024889Y019675D01*
X024889Y019688D02*
X026075Y019688D01*
X026075Y019698D01*
X026060Y019837D01*
X026028Y019973D01*
X025982Y020105D01*
X025922Y020231D01*
X025847Y020350D01*
X025760Y020459D01*
X025661Y020558D01*
X025551Y020645D01*
X025433Y020720D01*
X025307Y020780D01*
X025175Y020827D01*
X025038Y020858D01*
X024899Y020873D01*
X024889Y020873D01*
X024889Y019688D01*
X024769Y019688D01*
X024769Y020873D01*
X024759Y020873D01*
X024620Y020858D01*
X024484Y020827D01*
X024352Y020780D01*
X024226Y020720D01*
X024107Y020645D01*
X023998Y020558D01*
X023899Y020459D01*
X023812Y020350D01*
X023737Y020231D01*
X023677Y020105D01*
X023630Y019973D01*
X023599Y019837D01*
X023584Y019698D01*
X023584Y019688D01*
X024769Y019688D01*
X024769Y019568D01*
X023584Y019568D01*
X023584Y019558D01*
X023599Y019419D01*
X023630Y019282D01*
X023677Y019150D01*
X023737Y019024D01*
X023812Y018905D01*
X023899Y018796D01*
X023998Y018697D01*
X024107Y018610D01*
X024226Y018535D01*
X024352Y018475D01*
X024484Y018429D01*
X024620Y018397D01*
X024759Y018382D01*
X024769Y018382D01*
X024769Y019568D01*
X024889Y019568D01*
X024889Y019688D01*
X024889Y019794D02*
X024769Y019794D01*
X024769Y019912D02*
X024889Y019912D01*
X024889Y020031D02*
X024769Y020031D01*
X024769Y020149D02*
X024889Y020149D01*
X024889Y020268D02*
X024769Y020268D01*
X024769Y020386D02*
X024889Y020386D01*
X024889Y020505D02*
X024769Y020505D01*
X024769Y020623D02*
X024889Y020623D01*
X024889Y020742D02*
X024769Y020742D01*
X024769Y020860D02*
X024889Y020860D01*
X025017Y020860D02*
X027910Y020860D01*
X027539Y020742D02*
X025387Y020742D01*
X025579Y020623D02*
X027347Y020623D01*
X027212Y020505D02*
X025714Y020505D01*
X025818Y020386D02*
X027109Y020386D01*
X027028Y020268D02*
X025899Y020268D01*
X025961Y020149D02*
X026966Y020149D01*
X026918Y020031D02*
X026008Y020031D01*
X026042Y019912D02*
X026884Y019912D01*
X026862Y019794D02*
X026064Y019794D01*
X026075Y019568D02*
X024889Y019568D01*
X024889Y018382D01*
X024899Y018382D01*
X025038Y018397D01*
X025175Y018429D01*
X025307Y018475D01*
X025433Y018535D01*
X025551Y018610D01*
X025661Y018697D01*
X025760Y018796D01*
X025847Y018905D01*
X025922Y019024D01*
X025982Y019150D01*
X026028Y019282D01*
X026060Y019419D01*
X026075Y019558D01*
X026075Y019568D01*
X026075Y019557D02*
X026851Y019557D01*
X026865Y019438D02*
X026062Y019438D01*
X026037Y019320D02*
X026890Y019320D01*
X026926Y019201D02*
X026000Y019201D01*
X025950Y019083D02*
X026977Y019083D01*
X027043Y018964D02*
X025884Y018964D01*
X025799Y018846D02*
X027127Y018846D01*
X027236Y018727D02*
X025691Y018727D01*
X025549Y018609D02*
X027377Y018609D01*
X027588Y018490D02*
X025339Y018490D01*
X024889Y018490D02*
X024769Y018490D01*
X024769Y018609D02*
X024889Y018609D01*
X024889Y018727D02*
X024769Y018727D01*
X024769Y018846D02*
X024889Y018846D01*
X024889Y018964D02*
X024769Y018964D01*
X024769Y019083D02*
X024889Y019083D01*
X024889Y019201D02*
X024769Y019201D01*
X024769Y019320D02*
X024889Y019320D01*
X024889Y019438D02*
X024769Y019438D01*
X024769Y019557D02*
X024889Y019557D01*
X024769Y019675D02*
X023346Y019675D01*
X023346Y019557D02*
X023584Y019557D01*
X023597Y019438D02*
X023346Y019438D01*
X023346Y019320D02*
X023622Y019320D01*
X023659Y019201D02*
X023346Y019201D01*
X023346Y019083D02*
X023709Y019083D01*
X023775Y018964D02*
X023346Y018964D01*
X023346Y018846D02*
X023859Y018846D01*
X023968Y018727D02*
X023346Y018727D01*
X023346Y018609D02*
X024109Y018609D01*
X024320Y018490D02*
X023384Y018490D01*
X023502Y018372D02*
X029432Y018372D01*
X029432Y018107D02*
X029432Y018024D01*
X029514Y017942D01*
X030024Y017942D01*
X030030Y017948D01*
X030245Y017948D01*
X031290Y016903D01*
X030727Y016903D01*
X030727Y015583D01*
X030607Y015583D01*
X030607Y016903D01*
X029583Y016903D01*
X029542Y016892D01*
X029506Y016871D01*
X029476Y016842D01*
X029455Y016805D01*
X029444Y016764D01*
X029444Y015583D01*
X030607Y015583D01*
X030607Y015463D01*
X030727Y015463D01*
X030727Y014142D01*
X031452Y014142D01*
X030967Y013657D01*
X029636Y013668D01*
X025221Y013660D01*
X025353Y013872D01*
X025428Y014273D01*
X025353Y014674D01*
X025353Y014674D01*
X025138Y015021D01*
X025138Y015021D01*
X025138Y015021D01*
X024812Y015267D01*
X024420Y015378D01*
X024014Y015341D01*
X024014Y015341D01*
X023649Y015159D01*
X023649Y015159D01*
X023374Y014858D01*
X023374Y014858D01*
X023346Y014787D01*
X023346Y017937D01*
X023517Y018107D01*
X029432Y018107D01*
X029440Y018016D02*
X028337Y018016D01*
X028306Y018023D02*
X028167Y018039D01*
X028157Y018039D01*
X028157Y016853D01*
X028037Y016853D01*
X028037Y016733D01*
X026851Y016733D01*
X026851Y016723D01*
X026867Y016584D01*
X026898Y016447D01*
X026944Y016315D01*
X027005Y016189D01*
X027079Y016071D01*
X027167Y015961D01*
X027266Y015863D01*
X027375Y015775D01*
X027494Y015701D01*
X027620Y015640D01*
X027752Y015594D01*
X027888Y015563D01*
X028027Y015547D01*
X028037Y015547D01*
X028037Y016733D01*
X028157Y016733D01*
X028157Y015547D01*
X028167Y015547D01*
X028306Y015563D01*
X028443Y015594D01*
X028575Y015640D01*
X028701Y015701D01*
X028819Y015775D01*
X028929Y015863D01*
X029028Y015961D01*
X029115Y016071D01*
X029189Y016189D01*
X029250Y016315D01*
X029296Y016447D01*
X029327Y016584D01*
X029343Y016723D01*
X029343Y016733D01*
X028157Y016733D01*
X028157Y016853D01*
X029343Y016853D01*
X029343Y016863D01*
X029327Y017002D01*
X029296Y017138D01*
X029250Y017270D01*
X029189Y017396D01*
X029115Y017515D01*
X029028Y017624D01*
X028929Y017723D01*
X028819Y017811D01*
X028701Y017885D01*
X028575Y017946D01*
X028443Y017992D01*
X028306Y018023D01*
X028157Y018016D02*
X028037Y018016D01*
X028037Y018039D02*
X028027Y018039D01*
X027888Y018023D01*
X027752Y017992D01*
X027620Y017946D01*
X027494Y017885D01*
X027375Y017811D01*
X027266Y017723D01*
X027167Y017624D01*
X027079Y017515D01*
X027005Y017396D01*
X026944Y017270D01*
X026898Y017138D01*
X026867Y017002D01*
X026851Y016863D01*
X026851Y016853D01*
X028037Y016853D01*
X028037Y018039D01*
X028037Y017898D02*
X028157Y017898D01*
X028157Y017779D02*
X028037Y017779D01*
X028037Y017661D02*
X028157Y017661D01*
X028157Y017542D02*
X028037Y017542D01*
X028037Y017424D02*
X028157Y017424D01*
X028157Y017305D02*
X028037Y017305D01*
X028037Y017187D02*
X028157Y017187D01*
X028157Y017068D02*
X028037Y017068D01*
X028037Y016950D02*
X028157Y016950D01*
X028157Y016831D02*
X029470Y016831D01*
X029444Y016713D02*
X029342Y016713D01*
X029328Y016594D02*
X029444Y016594D01*
X029444Y016476D02*
X029303Y016476D01*
X029265Y016357D02*
X029444Y016357D01*
X029444Y016239D02*
X029213Y016239D01*
X029146Y016120D02*
X029444Y016120D01*
X029444Y016002D02*
X029060Y016002D01*
X028949Y015883D02*
X029444Y015883D01*
X029444Y015765D02*
X028802Y015765D01*
X028587Y015646D02*
X029444Y015646D01*
X029444Y015463D02*
X029444Y014281D01*
X029455Y014241D01*
X029476Y014204D01*
X029506Y014174D01*
X029542Y014153D01*
X029583Y014142D01*
X030607Y014142D01*
X030607Y015463D01*
X029444Y015463D01*
X029444Y015409D02*
X023346Y015409D01*
X023346Y015291D02*
X023913Y015291D01*
X023675Y015172D02*
X023346Y015172D01*
X023346Y015054D02*
X023553Y015054D01*
X023649Y015159D02*
X023649Y015159D01*
X023445Y014935D02*
X023346Y014935D01*
X023346Y014817D02*
X023358Y014817D01*
X023346Y015528D02*
X030607Y015528D01*
X030607Y015646D02*
X030727Y015646D01*
X030727Y015765D02*
X030607Y015765D01*
X030607Y015883D02*
X030727Y015883D01*
X030727Y016002D02*
X030607Y016002D01*
X030607Y016120D02*
X030727Y016120D01*
X030727Y016239D02*
X030607Y016239D01*
X030607Y016357D02*
X030727Y016357D01*
X030727Y016476D02*
X030607Y016476D01*
X030607Y016594D02*
X030727Y016594D01*
X030727Y016713D02*
X030607Y016713D01*
X030607Y016831D02*
X030727Y016831D01*
X031007Y017187D02*
X029279Y017187D01*
X029312Y017068D02*
X031125Y017068D01*
X031244Y016950D02*
X029333Y016950D01*
X029233Y017305D02*
X030888Y017305D01*
X030770Y017424D02*
X029172Y017424D01*
X029093Y017542D02*
X030651Y017542D01*
X030533Y017661D02*
X028991Y017661D01*
X028859Y017779D02*
X030414Y017779D01*
X030296Y017898D02*
X028674Y017898D01*
X027858Y018016D02*
X025069Y018016D01*
X025038Y018023D02*
X024899Y018039D01*
X024889Y018039D01*
X024889Y016853D01*
X024769Y016853D01*
X024769Y016733D01*
X023584Y016733D01*
X023584Y016723D01*
X023599Y016584D01*
X023630Y016447D01*
X023677Y016315D01*
X023737Y016189D01*
X023812Y016071D01*
X023899Y015961D01*
X023998Y015863D01*
X024107Y015775D01*
X024226Y015701D01*
X024352Y015640D01*
X024484Y015594D01*
X024620Y015563D01*
X024759Y015547D01*
X024769Y015547D01*
X024769Y016733D01*
X024889Y016733D01*
X024889Y015547D01*
X024899Y015547D01*
X025038Y015563D01*
X025175Y015594D01*
X025307Y015640D01*
X025433Y015701D01*
X025551Y015775D01*
X025661Y015863D01*
X025760Y015961D01*
X025847Y016071D01*
X025922Y016189D01*
X025982Y016315D01*
X026028Y016447D01*
X026060Y016584D01*
X026075Y016723D01*
X026075Y016733D01*
X024889Y016733D01*
X024889Y016853D01*
X026075Y016853D01*
X026075Y016863D01*
X026060Y017002D01*
X026028Y017138D01*
X025982Y017270D01*
X025922Y017396D01*
X025847Y017515D01*
X025760Y017624D01*
X025661Y017723D01*
X025551Y017811D01*
X025433Y017885D01*
X025307Y017946D01*
X025175Y017992D01*
X025038Y018023D01*
X024889Y018016D02*
X024769Y018016D01*
X024769Y018039D02*
X024759Y018039D01*
X024620Y018023D01*
X024484Y017992D01*
X024352Y017946D01*
X024226Y017885D01*
X024107Y017811D01*
X023998Y017723D01*
X023899Y017624D01*
X023812Y017515D01*
X023737Y017396D01*
X023677Y017270D01*
X023630Y017138D01*
X023599Y017002D01*
X023584Y016863D01*
X023584Y016853D01*
X024769Y016853D01*
X024769Y018039D01*
X024769Y017898D02*
X024889Y017898D01*
X024889Y017779D02*
X024769Y017779D01*
X024769Y017661D02*
X024889Y017661D01*
X024889Y017542D02*
X024769Y017542D01*
X024769Y017424D02*
X024889Y017424D01*
X024889Y017305D02*
X024769Y017305D01*
X024769Y017187D02*
X024889Y017187D01*
X024889Y017068D02*
X024769Y017068D01*
X024769Y016950D02*
X024889Y016950D01*
X024889Y016831D02*
X028037Y016831D01*
X028037Y016713D02*
X028157Y016713D01*
X028157Y016594D02*
X028037Y016594D01*
X028037Y016476D02*
X028157Y016476D01*
X028157Y016357D02*
X028037Y016357D01*
X028037Y016239D02*
X028157Y016239D01*
X028157Y016120D02*
X028037Y016120D01*
X028037Y016002D02*
X028157Y016002D01*
X028157Y015883D02*
X028037Y015883D01*
X028037Y015765D02*
X028157Y015765D01*
X028157Y015646D02*
X028037Y015646D01*
X027607Y015646D02*
X025319Y015646D01*
X025535Y015765D02*
X027392Y015765D01*
X027245Y015883D02*
X025681Y015883D01*
X025792Y016002D02*
X027135Y016002D01*
X027049Y016120D02*
X025878Y016120D01*
X025945Y016239D02*
X026981Y016239D01*
X026930Y016357D02*
X025997Y016357D01*
X026035Y016476D02*
X026892Y016476D01*
X026866Y016594D02*
X026061Y016594D01*
X026074Y016713D02*
X026852Y016713D01*
X026861Y016950D02*
X026065Y016950D01*
X026044Y017068D02*
X026882Y017068D01*
X026915Y017187D02*
X026012Y017187D01*
X025965Y017305D02*
X026961Y017305D01*
X027022Y017424D02*
X025904Y017424D01*
X025825Y017542D02*
X027101Y017542D01*
X027203Y017661D02*
X025724Y017661D01*
X025591Y017779D02*
X027336Y017779D01*
X027520Y017898D02*
X025407Y017898D01*
X024590Y018016D02*
X023426Y018016D01*
X023346Y017898D02*
X024252Y017898D01*
X024068Y017779D02*
X023346Y017779D01*
X023346Y017661D02*
X023935Y017661D01*
X023833Y017542D02*
X023346Y017542D01*
X023346Y017424D02*
X023754Y017424D01*
X023693Y017305D02*
X023346Y017305D01*
X023346Y017187D02*
X023647Y017187D01*
X023614Y017068D02*
X023346Y017068D01*
X023346Y016950D02*
X023593Y016950D01*
X023585Y016713D02*
X023346Y016713D01*
X023346Y016831D02*
X024769Y016831D01*
X024769Y016713D02*
X024889Y016713D01*
X024889Y016594D02*
X024769Y016594D01*
X024769Y016476D02*
X024889Y016476D01*
X024889Y016357D02*
X024769Y016357D01*
X024769Y016239D02*
X024889Y016239D01*
X024889Y016120D02*
X024769Y016120D01*
X024769Y016002D02*
X024889Y016002D01*
X024889Y015883D02*
X024769Y015883D01*
X024769Y015765D02*
X024889Y015765D01*
X024889Y015646D02*
X024769Y015646D01*
X024729Y015291D02*
X029444Y015291D01*
X029444Y015172D02*
X024938Y015172D01*
X024812Y015267D02*
X024812Y015267D01*
X025095Y015054D02*
X029444Y015054D01*
X029444Y014935D02*
X025191Y014935D01*
X025264Y014817D02*
X029444Y014817D01*
X029444Y014698D02*
X027992Y014698D01*
X027952Y014738D02*
X027521Y014738D01*
X027216Y014434D01*
X027216Y014003D01*
X027521Y013698D01*
X027952Y013698D01*
X028256Y014003D01*
X028256Y014434D01*
X027952Y014738D01*
X028110Y014580D02*
X029444Y014580D01*
X029444Y014461D02*
X028229Y014461D01*
X028256Y014343D02*
X029444Y014343D01*
X029464Y014224D02*
X028256Y014224D01*
X028256Y014106D02*
X031415Y014106D01*
X031297Y013987D02*
X028241Y013987D01*
X028122Y013869D02*
X031178Y013869D01*
X031060Y013750D02*
X028004Y013750D01*
X027469Y013750D02*
X026832Y013750D01*
X026760Y013678D02*
X027076Y013994D01*
X027076Y014180D01*
X026575Y014180D01*
X026575Y014257D01*
X026498Y014257D01*
X026498Y014758D01*
X026313Y014758D01*
X025996Y014442D01*
X025996Y014257D01*
X026498Y014257D01*
X026498Y014180D01*
X025996Y014180D01*
X025996Y013994D01*
X026313Y013678D01*
X026498Y013678D01*
X026498Y014180D01*
X026575Y014180D01*
X026575Y013678D01*
X026760Y013678D01*
X026575Y013750D02*
X026498Y013750D01*
X026498Y013869D02*
X026575Y013869D01*
X026575Y013987D02*
X026498Y013987D01*
X026498Y014106D02*
X026575Y014106D01*
X026575Y014224D02*
X027216Y014224D01*
X027216Y014106D02*
X027076Y014106D01*
X027069Y013987D02*
X027232Y013987D01*
X027351Y013869D02*
X026951Y013869D01*
X027076Y014257D02*
X026575Y014257D01*
X026575Y014758D01*
X026760Y014758D01*
X027076Y014442D01*
X027076Y014257D01*
X027076Y014343D02*
X027216Y014343D01*
X027244Y014461D02*
X027057Y014461D01*
X026939Y014580D02*
X027363Y014580D01*
X027481Y014698D02*
X026820Y014698D01*
X026575Y014698D02*
X026498Y014698D01*
X026498Y014580D02*
X026575Y014580D01*
X026575Y014461D02*
X026498Y014461D01*
X026498Y014343D02*
X026575Y014343D01*
X026498Y014224D02*
X025418Y014224D01*
X025415Y014343D02*
X025996Y014343D01*
X026016Y014461D02*
X025392Y014461D01*
X025370Y014580D02*
X026134Y014580D01*
X026253Y014698D02*
X025338Y014698D01*
X025396Y014106D02*
X025996Y014106D01*
X026004Y013987D02*
X025374Y013987D01*
X025353Y013872D02*
X025353Y013872D01*
X025350Y013869D02*
X026122Y013869D01*
X026241Y013750D02*
X025277Y013750D01*
X024420Y015378D02*
X024420Y015378D01*
X024339Y015646D02*
X023346Y015646D01*
X023346Y015765D02*
X024124Y015765D01*
X023977Y015883D02*
X023346Y015883D01*
X023346Y016002D02*
X023867Y016002D01*
X023781Y016120D02*
X023346Y016120D01*
X023346Y016239D02*
X023714Y016239D01*
X023662Y016357D02*
X023346Y016357D01*
X023346Y016476D02*
X023624Y016476D01*
X023598Y016594D02*
X023346Y016594D01*
X023346Y019794D02*
X023594Y019794D01*
X023616Y019912D02*
X023346Y019912D01*
X023346Y020031D02*
X023651Y020031D01*
X023698Y020149D02*
X023346Y020149D01*
X023346Y020268D02*
X023760Y020268D01*
X023841Y020386D02*
X023346Y020386D01*
X023346Y020505D02*
X023945Y020505D01*
X024080Y020623D02*
X023346Y020623D01*
X023351Y020742D02*
X024271Y020742D01*
X024642Y020860D02*
X023470Y020860D01*
X023588Y020979D02*
X035934Y020979D01*
X035972Y021078D02*
X035972Y021078D01*
X035990Y021097D02*
X023707Y021097D01*
X030030Y018846D02*
X030586Y018846D01*
X030586Y018727D02*
X030106Y018727D01*
X030106Y018609D02*
X030586Y018609D01*
X030586Y018490D02*
X030106Y018490D01*
X030444Y018372D02*
X030586Y018372D01*
X030586Y018253D02*
X030563Y018253D01*
X030842Y019083D02*
X032567Y019083D01*
X032473Y019201D02*
X030961Y019201D01*
X030727Y015409D02*
X030607Y015409D01*
X030607Y015291D02*
X030727Y015291D01*
X030727Y015172D02*
X030607Y015172D01*
X030607Y015054D02*
X030727Y015054D01*
X030727Y014935D02*
X030607Y014935D01*
X030607Y014817D02*
X030727Y014817D01*
X030727Y014698D02*
X030607Y014698D01*
X030607Y014580D02*
X030727Y014580D01*
X030727Y014461D02*
X030607Y014461D01*
X030607Y014343D02*
X030727Y014343D01*
X030727Y014224D02*
X030607Y014224D01*
X031918Y014461D02*
X033162Y014461D01*
X033190Y014426D02*
X033289Y014327D01*
X033399Y014240D01*
X033517Y014165D01*
X033643Y014105D01*
X033775Y014058D01*
X033912Y014027D01*
X034051Y014012D01*
X034061Y014012D01*
X034061Y015197D01*
X032875Y015197D01*
X032875Y015188D01*
X032891Y015048D01*
X032922Y014912D01*
X032968Y014780D01*
X033029Y014654D01*
X033103Y014535D01*
X033190Y014426D01*
X033274Y014343D02*
X031981Y014343D01*
X032100Y014224D02*
X033424Y014224D01*
X033641Y014106D02*
X032218Y014106D01*
X032337Y013987D02*
X035554Y013987D01*
X035546Y014106D02*
X034600Y014106D01*
X034818Y014224D02*
X036048Y014224D01*
X036048Y014106D02*
X036125Y014106D01*
X036125Y013987D02*
X036048Y013987D01*
X036048Y013869D02*
X036125Y013869D01*
X036125Y013750D02*
X036048Y013750D01*
X035791Y013750D02*
X032574Y013750D01*
X032455Y013869D02*
X035672Y013869D01*
X035546Y014343D02*
X034968Y014343D01*
X035079Y014461D02*
X035566Y014461D01*
X035684Y014580D02*
X035166Y014580D01*
X035234Y014698D02*
X035803Y014698D01*
X036048Y014698D02*
X036125Y014698D01*
X036125Y014580D02*
X036048Y014580D01*
X036048Y014461D02*
X036125Y014461D01*
X036125Y014343D02*
X036048Y014343D01*
X036370Y014698D02*
X036617Y014698D01*
X036735Y014817D02*
X035286Y014817D01*
X035325Y014935D02*
X036854Y014935D01*
X036895Y015054D02*
X036972Y015054D01*
X037015Y015172D02*
X036895Y015172D01*
X036895Y015291D02*
X037015Y015291D01*
X037015Y015409D02*
X036895Y015409D01*
X036895Y015528D02*
X037015Y015528D01*
X037015Y015646D02*
X036895Y015646D01*
X036895Y015765D02*
X035259Y015765D01*
X035305Y015646D02*
X036161Y015646D01*
X036195Y015528D02*
X035337Y015528D01*
X035357Y015409D02*
X036251Y015409D01*
X036332Y015291D02*
X034181Y015291D01*
X034181Y015172D02*
X034061Y015172D01*
X034061Y015054D02*
X034181Y015054D01*
X034181Y014935D02*
X034061Y014935D01*
X034061Y014817D02*
X034181Y014817D01*
X034181Y014698D02*
X034061Y014698D01*
X034061Y014580D02*
X034181Y014580D01*
X034181Y014461D02*
X034061Y014461D01*
X034061Y014343D02*
X034181Y014343D01*
X034181Y014224D02*
X034061Y014224D01*
X034061Y014106D02*
X034181Y014106D01*
X033075Y014580D02*
X031920Y014580D01*
X031923Y014698D02*
X033007Y014698D01*
X032955Y014817D02*
X031926Y014817D01*
X031928Y014935D02*
X032916Y014935D01*
X032890Y015054D02*
X031931Y015054D01*
X031933Y015172D02*
X032877Y015172D01*
X034382Y016476D02*
X036495Y016476D01*
X036359Y016357D02*
X034709Y016357D01*
X034889Y016239D02*
X036269Y016239D01*
X036208Y016120D02*
X035020Y016120D01*
X035121Y016002D02*
X036169Y016002D01*
X036149Y015883D02*
X035199Y015883D01*
X035365Y015172D02*
X036455Y015172D01*
X036663Y015054D02*
X035351Y015054D01*
X036636Y014343D02*
X036746Y014343D01*
X036746Y014257D02*
X037248Y014257D01*
X037248Y014758D01*
X037063Y014758D01*
X036746Y014442D01*
X036746Y014257D01*
X036746Y014180D02*
X036746Y013994D01*
X037063Y013678D01*
X037248Y013678D01*
X037248Y014180D01*
X036746Y014180D01*
X036746Y014106D02*
X036636Y014106D01*
X036636Y014224D02*
X037248Y014224D01*
X037248Y014257D02*
X037248Y014180D01*
X037325Y014180D01*
X037325Y014257D01*
X037248Y014257D01*
X037325Y014257D02*
X037325Y014758D01*
X037510Y014758D01*
X037826Y014442D01*
X037826Y014257D01*
X037325Y014257D01*
X037325Y014224D02*
X037887Y014224D01*
X037826Y014180D02*
X037325Y014180D01*
X037325Y013678D01*
X037510Y013678D01*
X037826Y013994D01*
X037826Y014180D01*
X037826Y014106D02*
X037887Y014106D01*
X037887Y013987D02*
X037819Y013987D01*
X037887Y013869D02*
X037701Y013869D01*
X037778Y013750D02*
X037582Y013750D01*
X037325Y013750D02*
X037248Y013750D01*
X037248Y013869D02*
X037325Y013869D01*
X037325Y013987D02*
X037248Y013987D01*
X037248Y014106D02*
X037325Y014106D01*
X037325Y014343D02*
X037248Y014343D01*
X037248Y014461D02*
X037325Y014461D01*
X037325Y014580D02*
X037248Y014580D01*
X037248Y014698D02*
X037325Y014698D01*
X037570Y014698D02*
X037887Y014698D01*
X037887Y014580D02*
X037689Y014580D01*
X037807Y014461D02*
X037887Y014461D01*
X037887Y014343D02*
X037826Y014343D01*
X037887Y014817D02*
X037080Y014817D01*
X037003Y014698D02*
X036964Y014698D01*
X036884Y014580D02*
X036848Y014580D01*
X036766Y014461D02*
X036730Y014461D01*
X036754Y013987D02*
X036636Y013987D01*
X036720Y013869D02*
X036872Y013869D01*
X036819Y013750D02*
X036991Y013750D01*
X037195Y014935D02*
X037887Y014935D01*
X037887Y015054D02*
X037313Y015054D01*
X037436Y015172D02*
X037887Y015172D01*
X037887Y015291D02*
X037554Y015291D01*
X037645Y015409D02*
X037887Y015409D01*
X037887Y015528D02*
X037694Y015528D01*
X037743Y015646D02*
X037887Y015646D01*
X037887Y015765D02*
X037745Y015765D01*
X037745Y015883D02*
X037887Y015883D01*
X037887Y016002D02*
X037730Y016002D01*
X037681Y016120D02*
X037887Y016120D01*
X037887Y016239D02*
X037632Y016239D01*
X037524Y016357D02*
X037887Y016357D01*
X037887Y016476D02*
X037417Y016476D01*
X037417Y016594D02*
X037887Y016594D01*
X037887Y016713D02*
X037411Y016713D01*
X037293Y016831D02*
X037887Y016831D01*
X037015Y016476D02*
X036895Y016476D01*
X036895Y016357D02*
X037015Y016357D01*
X037015Y016239D02*
X036895Y016239D01*
X036895Y016120D02*
X037015Y016120D01*
X037015Y016002D02*
X036895Y016002D01*
X036895Y015883D02*
X037015Y015883D01*
X035774Y016950D02*
X034593Y016950D01*
X034799Y017068D02*
X035656Y017068D01*
X035537Y017187D02*
X034949Y017187D01*
X035067Y017305D02*
X035419Y017305D01*
X035300Y017424D02*
X035150Y017424D01*
X037340Y018490D02*
X037887Y018490D01*
X037887Y018372D02*
X037506Y018372D01*
X037611Y018253D02*
X037887Y018253D01*
X037887Y018135D02*
X037684Y018135D01*
X037730Y018016D02*
X037887Y018016D01*
X037887Y017898D02*
X037756Y017898D01*
X024103Y008618D02*
X024086Y008601D01*
D28*
X030686Y014218D02*
X030686Y015523D01*
X030686Y017018D01*
X030686Y015518D02*
X029136Y015518D01*
X029136Y015523D01*
X029067Y015523D01*
D29*
X031986Y011268D03*
D30*
X032267Y017407D02*
X032667Y017407D01*
X032267Y017407D02*
X032267Y019157D01*
X031567Y019157D01*
X031567Y017838D01*
X031567Y018397D02*
X031564Y018397D01*
D31*
X033386Y006468D02*
X033386Y006268D01*
D32*
X034160Y018092D02*
X035341Y018092D01*
X034160Y018131D02*
X034160Y020244D01*
M02*
