%
M48
M72
T01C0.0157
T02C0.0320
T03C0.0394
T04C0.0709
T05C0.0827
T06C0.1772
%
T01
X23486Y11018
X23486Y12268
X25186Y10568
X25336Y9918
X24536Y8718
X25936Y7268
X26786Y9118
X27086Y10618
X27136Y12268
X29086Y12268
X29036Y11718
X30086Y11618
X30436Y10218
X31536Y10268
X31986Y11268
X31986Y12268
X32786Y13868
X33386Y13868
X32486Y14468
X32086Y14468
X32486Y14868
X32486Y15268
X32486Y15668
X32086Y15668
X31986Y16468
X32486Y17168
X32486Y17568
X32886Y17568
X32886Y17168
X32936Y19118
X32686Y19568
X32086Y19718
X31586Y19718
X31036Y19718
X30536Y19518
X29936Y19518
X29536Y19118
X28886Y18518
X28836Y17968
X29236Y17968
X29236Y17568
X29636Y17418
X29636Y17018
X29636Y17818
X29286Y16018
X29286Y15618
X29286Y15218
X27536Y15468
X27036Y15468
X26536Y15468
X26036Y15468
X25486Y15468
X24036Y15518
X23486Y15618
X23486Y16118
X23486Y16568
X23486Y17018
X23486Y17518
X23636Y17968
X23636Y18468
X23486Y18968
X23486Y19518
X23486Y20118
X23486Y20618
X23836Y21018
X24386Y21018
X24986Y21018
X25586Y21018
X26186Y21018
X26786Y21018
X27386Y21018
X27986Y21018
X28586Y21018
X29186Y21018
X29786Y21018
X30386Y21018
X31036Y21018
X31686Y21018
X32286Y21018
X32886Y21018
X33486Y21018
X34086Y21018
X34686Y21018
X35236Y21018
X35786Y21018
X37736Y19468
X37736Y18918
X37736Y18318
X36286Y17068
X35986Y17418
X35636Y17818
X35386Y13868
X34836Y13868
X35586Y12268
X36586Y10568
X37786Y10568
X37786Y8768
X37086Y8768
X35986Y7918
X36536Y6718
X37736Y6968
X37736Y5968
X34586Y5968
X34286Y6968
X30936Y5968
X28336Y9068
X29136Y9318
X27136Y17968
X27136Y18468
X26486Y18468
X26486Y17968
X25836Y17968
X25836Y18468
T02
X31062Y8518
X32062Y8518
T03
X36086Y11818
X37286Y11818
X37286Y14218
X36086Y14218
X27736Y14218
X26536Y14218
X26536Y11818
X27736Y11818
T04
X36955Y15809
X36955Y17777
T05
X36916Y20494
X24318Y14273
T06
X24829Y16793
X24829Y19628
X28097Y19628
X28097Y16793
X34121Y18092
X34121Y15257
M30
