%
M48
M72
T01C0.0236
T02C0.0354
T03C0.0827
%
T01
X1800Y900
X2800Y900
X2700Y2900
X650Y4000
X2600Y5000
X2600Y6150
X650Y6800
X2700Y8400
X2900Y9950
X1900Y9950
X5200Y10150
X7150Y10150
X7900Y9950
X7850Y9200
X8900Y9950
X9750Y9200
X9750Y6800
X7750Y5400
X9750Y4000
X9750Y1650
X8800Y900
X7800Y900
X7750Y1650
X7050Y650
X5000Y650
T02
X5200Y4350
X4216Y4350
X6184Y4350
X6184Y6800
X5200Y6800
X4216Y6800
T03
X1281Y5415
X9155Y5415
M30
