G75*
G70*
%OFA0B0*%
%FSLAX24Y24*%
%IPPOS*%
%LPD*%
%AMOC8*
5,1,8,0,0,1.08239X$1,22.5*
%
%ADD10C,0.0060*%
%ADD11C,0.0040*%
%ADD12C,0.0050*%
%ADD13R,0.0500X0.0200*%
%ADD14C,0.0080*%
D10*
X003100Y005010D02*
X003100Y005230D01*
X003100Y005010D02*
X003420Y005010D01*
X003100Y005910D02*
X003100Y006130D01*
X003420Y006130D01*
X000431Y005415D02*
X000433Y005473D01*
X000439Y005531D01*
X000449Y005588D01*
X000463Y005644D01*
X000480Y005700D01*
X000501Y005754D01*
X000526Y005806D01*
X000555Y005857D01*
X000587Y005905D01*
X000622Y005951D01*
X000660Y005995D01*
X000701Y006036D01*
X000745Y006074D01*
X000791Y006109D01*
X000839Y006141D01*
X000890Y006170D01*
X000942Y006195D01*
X000996Y006216D01*
X001052Y006233D01*
X001108Y006247D01*
X001165Y006257D01*
X001223Y006263D01*
X001281Y006265D01*
X001339Y006263D01*
X001397Y006257D01*
X001454Y006247D01*
X001510Y006233D01*
X001566Y006216D01*
X001620Y006195D01*
X001672Y006170D01*
X001723Y006141D01*
X001771Y006109D01*
X001817Y006074D01*
X001861Y006036D01*
X001902Y005995D01*
X001940Y005951D01*
X001975Y005905D01*
X002007Y005857D01*
X002036Y005806D01*
X002061Y005754D01*
X002082Y005700D01*
X002099Y005644D01*
X002113Y005588D01*
X002123Y005531D01*
X002129Y005473D01*
X002131Y005415D01*
X002129Y005357D01*
X002123Y005299D01*
X002113Y005242D01*
X002099Y005186D01*
X002082Y005130D01*
X002061Y005076D01*
X002036Y005024D01*
X002007Y004973D01*
X001975Y004925D01*
X001940Y004879D01*
X001902Y004835D01*
X001861Y004794D01*
X001817Y004756D01*
X001771Y004721D01*
X001723Y004689D01*
X001672Y004660D01*
X001620Y004635D01*
X001566Y004614D01*
X001510Y004597D01*
X001454Y004583D01*
X001397Y004573D01*
X001339Y004567D01*
X001281Y004565D01*
X001223Y004567D01*
X001165Y004573D01*
X001108Y004583D01*
X001052Y004597D01*
X000996Y004614D01*
X000942Y004635D01*
X000890Y004660D01*
X000839Y004689D01*
X000791Y004721D01*
X000745Y004756D01*
X000701Y004794D01*
X000660Y004835D01*
X000622Y004879D01*
X000587Y004925D01*
X000555Y004973D01*
X000526Y005024D01*
X000501Y005076D01*
X000480Y005130D01*
X000463Y005186D01*
X000449Y005242D01*
X000439Y005299D01*
X000433Y005357D01*
X000431Y005415D01*
X004990Y008540D02*
X004990Y008860D01*
X005210Y008860D01*
X005890Y008860D02*
X006110Y008860D01*
X006110Y008540D01*
X007530Y008620D02*
X007530Y008180D01*
X007530Y008327D02*
X007750Y008327D01*
X007824Y008400D01*
X007824Y008547D01*
X007750Y008620D01*
X007530Y008620D01*
X007677Y008327D02*
X007824Y008180D01*
X007990Y008253D02*
X007990Y008400D01*
X008064Y008474D01*
X008211Y008474D01*
X008284Y008400D01*
X008284Y008327D01*
X007990Y008327D01*
X007990Y008253D02*
X008064Y008180D01*
X008211Y008180D01*
X008137Y007970D02*
X008137Y007530D01*
X007990Y007530D02*
X008284Y007530D01*
X008451Y007530D02*
X008451Y007603D01*
X008524Y007603D01*
X008524Y007530D01*
X008451Y007530D01*
X008211Y007320D02*
X008064Y007320D01*
X007990Y007247D01*
X008211Y007320D02*
X008284Y007247D01*
X008284Y007174D01*
X007990Y006880D01*
X008284Y006880D01*
X008451Y006880D02*
X008451Y006953D01*
X008524Y006953D01*
X008524Y006880D01*
X008451Y006880D01*
X008681Y006880D02*
X008975Y007174D01*
X008975Y007247D01*
X008901Y007320D01*
X008754Y007320D01*
X008681Y007247D01*
X008754Y007530D02*
X008681Y007603D01*
X008975Y007897D01*
X008975Y007603D01*
X008901Y007530D01*
X008754Y007530D01*
X008681Y007603D02*
X008681Y007897D01*
X008754Y007970D01*
X008901Y007970D01*
X008975Y007897D01*
X008985Y008180D02*
X008911Y008253D01*
X008985Y008180D02*
X009131Y008180D01*
X009205Y008253D01*
X009205Y008327D01*
X009131Y008400D01*
X008985Y008400D01*
X008911Y008474D01*
X008911Y008547D01*
X008985Y008620D01*
X009131Y008620D01*
X009205Y008547D01*
X009372Y008620D02*
X009372Y008180D01*
X009518Y008327D01*
X009665Y008180D01*
X009665Y008620D01*
X008744Y008400D02*
X008744Y008180D01*
X008598Y008180D02*
X008598Y008400D01*
X008671Y008474D01*
X008744Y008400D01*
X008598Y008400D02*
X008524Y008474D01*
X008451Y008474D01*
X008451Y008180D01*
X008137Y007970D02*
X007990Y007824D01*
X007824Y007677D02*
X007824Y007970D01*
X007530Y007970D02*
X007530Y007677D01*
X007677Y007530D01*
X007824Y007677D01*
X007677Y007320D02*
X007677Y006880D01*
X007530Y006880D02*
X007824Y006880D01*
X007530Y007174D02*
X007677Y007320D01*
X008681Y006880D02*
X008975Y006880D01*
X009141Y006953D02*
X009435Y007247D01*
X009435Y006953D01*
X009362Y006880D01*
X009215Y006880D01*
X009141Y006953D01*
X009141Y007247D01*
X009215Y007320D01*
X009362Y007320D01*
X009435Y007247D01*
X008305Y005415D02*
X008307Y005473D01*
X008313Y005531D01*
X008323Y005588D01*
X008337Y005644D01*
X008354Y005700D01*
X008375Y005754D01*
X008400Y005806D01*
X008429Y005857D01*
X008461Y005905D01*
X008496Y005951D01*
X008534Y005995D01*
X008575Y006036D01*
X008619Y006074D01*
X008665Y006109D01*
X008713Y006141D01*
X008764Y006170D01*
X008816Y006195D01*
X008870Y006216D01*
X008926Y006233D01*
X008982Y006247D01*
X009039Y006257D01*
X009097Y006263D01*
X009155Y006265D01*
X009213Y006263D01*
X009271Y006257D01*
X009328Y006247D01*
X009384Y006233D01*
X009440Y006216D01*
X009494Y006195D01*
X009546Y006170D01*
X009597Y006141D01*
X009645Y006109D01*
X009691Y006074D01*
X009735Y006036D01*
X009776Y005995D01*
X009814Y005951D01*
X009849Y005905D01*
X009881Y005857D01*
X009910Y005806D01*
X009935Y005754D01*
X009956Y005700D01*
X009973Y005644D01*
X009987Y005588D01*
X009997Y005531D01*
X010003Y005473D01*
X010005Y005415D01*
X010003Y005357D01*
X009997Y005299D01*
X009987Y005242D01*
X009973Y005186D01*
X009956Y005130D01*
X009935Y005076D01*
X009910Y005024D01*
X009881Y004973D01*
X009849Y004925D01*
X009814Y004879D01*
X009776Y004835D01*
X009735Y004794D01*
X009691Y004756D01*
X009645Y004721D01*
X009597Y004689D01*
X009546Y004660D01*
X009494Y004635D01*
X009440Y004614D01*
X009384Y004597D01*
X009328Y004583D01*
X009271Y004573D01*
X009213Y004567D01*
X009155Y004565D01*
X009097Y004567D01*
X009039Y004573D01*
X008982Y004583D01*
X008926Y004597D01*
X008870Y004614D01*
X008816Y004635D01*
X008764Y004660D01*
X008713Y004689D01*
X008665Y004721D01*
X008619Y004756D01*
X008575Y004794D01*
X008534Y004835D01*
X008496Y004879D01*
X008461Y004925D01*
X008429Y004973D01*
X008400Y005024D01*
X008375Y005076D01*
X008354Y005130D01*
X008337Y005186D01*
X008323Y005242D01*
X008313Y005299D01*
X008307Y005357D01*
X008305Y005415D01*
X007110Y002760D02*
X007110Y002440D01*
X006890Y002440D01*
X006210Y002440D02*
X005990Y002440D01*
X005990Y002760D01*
D11*
X006720Y003670D02*
X006950Y003670D01*
X007027Y003747D01*
X007027Y004054D01*
X006950Y004130D01*
X006720Y004130D01*
X006720Y003670D01*
X007180Y003670D02*
X007487Y003670D01*
X007334Y003670D02*
X007334Y004130D01*
X007180Y003977D01*
X008270Y002990D02*
X008270Y002836D01*
X008346Y002760D01*
X008346Y002606D02*
X008270Y002529D01*
X008270Y002376D01*
X008346Y002299D01*
X008653Y002299D01*
X008730Y002376D01*
X008730Y002529D01*
X008653Y002606D01*
X008653Y002760D02*
X008730Y002836D01*
X008730Y002990D01*
X008653Y003067D01*
X008577Y003067D01*
X008500Y002990D01*
X008500Y002913D01*
X008500Y002990D02*
X008423Y003067D01*
X008346Y003067D01*
X008270Y002990D01*
X004970Y005179D02*
X004970Y005409D01*
X004893Y005486D01*
X004586Y005486D01*
X004510Y005409D01*
X004510Y005179D01*
X004970Y005179D01*
X004893Y005640D02*
X004970Y005716D01*
X004970Y005870D01*
X004893Y005947D01*
X004817Y005947D01*
X004740Y005870D01*
X004740Y005793D01*
X004740Y005870D02*
X004663Y005947D01*
X004586Y005947D01*
X004510Y005870D01*
X004510Y005716D01*
X004586Y005640D01*
X005049Y007370D02*
X005279Y007370D01*
X005356Y007447D01*
X005356Y007754D01*
X005279Y007830D01*
X005049Y007830D01*
X005049Y007370D01*
X005510Y007370D02*
X005817Y007677D01*
X005817Y007754D01*
X005740Y007830D01*
X005586Y007830D01*
X005510Y007754D01*
X005510Y007370D02*
X005817Y007370D01*
X006670Y007567D02*
X006746Y007413D01*
X006900Y007260D01*
X006900Y007490D01*
X006977Y007567D01*
X007053Y007567D01*
X007130Y007490D01*
X007130Y007336D01*
X007053Y007260D01*
X006900Y007260D01*
X007053Y007106D02*
X007130Y007029D01*
X007130Y006876D01*
X007053Y006799D01*
X006746Y006799D01*
X006670Y006876D01*
X006670Y007029D01*
X006746Y007106D01*
X003830Y008197D02*
X003830Y008350D01*
X003753Y008427D01*
X003753Y008580D02*
X003830Y008657D01*
X003830Y008811D01*
X003753Y008887D01*
X003600Y008887D01*
X003523Y008811D01*
X003523Y008734D01*
X003600Y008580D01*
X003370Y008580D01*
X003370Y008887D01*
X003217Y008820D02*
X002910Y008820D01*
X003217Y009127D01*
X003217Y009204D01*
X003140Y009280D01*
X002986Y009280D01*
X002910Y009204D01*
X002756Y009280D02*
X002756Y008820D01*
X002603Y008973D01*
X002449Y008820D01*
X002449Y009280D01*
X002296Y009204D02*
X002219Y009280D01*
X002066Y009280D01*
X001989Y009204D01*
X001989Y009127D01*
X002066Y009050D01*
X002219Y009050D01*
X002296Y008973D01*
X002296Y008897D01*
X002219Y008820D01*
X002066Y008820D01*
X001989Y008897D01*
X002013Y007880D02*
X002013Y007420D01*
X001860Y007420D02*
X002167Y007420D01*
X001860Y007727D02*
X002013Y007880D01*
X001706Y007804D02*
X001706Y007650D01*
X001629Y007573D01*
X001399Y007573D01*
X001399Y007420D02*
X001399Y007880D01*
X001629Y007880D01*
X001706Y007804D01*
X001553Y007573D02*
X001706Y007420D01*
X001629Y007030D02*
X001476Y007030D01*
X001399Y006954D01*
X001399Y006647D01*
X001476Y006570D01*
X001629Y006570D01*
X001706Y006647D01*
X001860Y006570D02*
X002167Y006570D01*
X002013Y006570D02*
X002013Y007030D01*
X001860Y006877D01*
X001706Y006954D02*
X001629Y007030D01*
X003370Y008197D02*
X003446Y008120D01*
X003753Y008120D01*
X003830Y008197D01*
X003446Y008427D02*
X003370Y008350D01*
X003370Y008197D01*
X002090Y004230D02*
X001936Y004230D01*
X001860Y004154D01*
X001706Y004154D02*
X001629Y004230D01*
X001476Y004230D01*
X001399Y004154D01*
X001399Y003847D01*
X001476Y003770D01*
X001629Y003770D01*
X001706Y003847D01*
X001860Y003770D02*
X002167Y004077D01*
X002167Y004154D01*
X002090Y004230D01*
X002167Y003770D02*
X001860Y003770D01*
X001936Y003480D02*
X001860Y003404D01*
X001936Y003480D02*
X002090Y003480D01*
X002167Y003404D01*
X002167Y003327D01*
X001860Y003020D01*
X002167Y003020D01*
X001706Y003020D02*
X001553Y003173D01*
X001629Y003173D02*
X001399Y003173D01*
X001399Y003020D02*
X001399Y003480D01*
X001629Y003480D01*
X001706Y003404D01*
X001706Y003250D01*
X001629Y003173D01*
X003270Y001954D02*
X003270Y001877D01*
X003347Y001800D01*
X003500Y001800D01*
X003577Y001723D01*
X003577Y001647D01*
X003500Y001570D01*
X003347Y001570D01*
X003270Y001647D01*
X003270Y001954D02*
X003347Y002030D01*
X003500Y002030D01*
X003577Y001954D01*
X003730Y002030D02*
X003730Y001570D01*
X003884Y001723D01*
X004037Y001570D01*
X004037Y002030D01*
X004191Y001877D02*
X004344Y002030D01*
X004344Y001570D01*
X004191Y001570D02*
X004498Y001570D01*
X004396Y002320D02*
X004703Y002320D01*
X004780Y002397D01*
X004780Y002550D01*
X004703Y002627D01*
X004550Y002780D02*
X004550Y003087D01*
X004780Y003011D02*
X004320Y003011D01*
X004550Y002780D01*
X004396Y002627D02*
X004320Y002550D01*
X004320Y002397D01*
X004396Y002320D01*
D12*
X002052Y000290D02*
X008548Y000290D01*
X008596Y000292D01*
X008643Y000298D01*
X008690Y000307D01*
X008737Y000320D01*
X008781Y000336D01*
X008825Y000356D01*
X008867Y000380D01*
X008907Y000406D01*
X008944Y000436D01*
X008979Y000469D01*
X009012Y000504D01*
X009042Y000541D01*
X009068Y000581D01*
X009092Y000623D01*
X009112Y000667D01*
X009128Y000711D01*
X009141Y000758D01*
X009150Y000805D01*
X009156Y000852D01*
X009158Y000900D01*
X009156Y000948D01*
X009150Y000995D01*
X009141Y001042D01*
X009128Y001089D01*
X009112Y001133D01*
X009092Y001177D01*
X009068Y001219D01*
X009042Y001259D01*
X009012Y001296D01*
X008979Y001331D01*
X008944Y001364D01*
X008907Y001394D01*
X008867Y001420D01*
X008825Y001444D01*
X008781Y001464D01*
X008737Y001480D01*
X008690Y001493D01*
X008643Y001502D01*
X008596Y001508D01*
X008548Y001510D01*
X002052Y001510D01*
X002004Y001508D01*
X001957Y001502D01*
X001910Y001493D01*
X001863Y001480D01*
X001819Y001464D01*
X001775Y001444D01*
X001733Y001420D01*
X001693Y001394D01*
X001656Y001364D01*
X001621Y001331D01*
X001588Y001296D01*
X001558Y001259D01*
X001532Y001219D01*
X001508Y001177D01*
X001488Y001133D01*
X001472Y001089D01*
X001459Y001042D01*
X001450Y000995D01*
X001444Y000948D01*
X001442Y000900D01*
X001444Y000852D01*
X001450Y000805D01*
X001459Y000758D01*
X001472Y000711D01*
X001488Y000667D01*
X001508Y000623D01*
X001532Y000581D01*
X001558Y000541D01*
X001588Y000504D01*
X001621Y000469D01*
X001656Y000436D01*
X001693Y000406D01*
X001733Y000380D01*
X001775Y000356D01*
X001819Y000336D01*
X001863Y000320D01*
X001910Y000307D01*
X001957Y000298D01*
X002004Y000292D01*
X002052Y000290D01*
X002550Y000890D02*
X004270Y000890D01*
X005410Y000820D01*
X005190Y000980D02*
X006330Y000910D01*
X008050Y000910D01*
X007564Y001451D02*
X007610Y001449D01*
X007655Y001443D01*
X007699Y001434D01*
X007743Y001421D01*
X007785Y001405D01*
X007826Y001385D01*
X007865Y001361D01*
X007902Y001335D01*
X007937Y001305D01*
X007969Y001273D01*
X007999Y001238D01*
X008025Y001201D01*
X008049Y001162D01*
X008069Y001121D01*
X008085Y001079D01*
X008098Y001035D01*
X008107Y000991D01*
X008113Y000946D01*
X008115Y000900D01*
X008113Y000854D01*
X008107Y000809D01*
X008098Y000765D01*
X008085Y000721D01*
X008069Y000679D01*
X008049Y000638D01*
X008025Y000599D01*
X007999Y000562D01*
X007969Y000527D01*
X007937Y000495D01*
X007902Y000465D01*
X007865Y000439D01*
X007826Y000415D01*
X007785Y000395D01*
X007743Y000379D01*
X007699Y000366D01*
X007655Y000357D01*
X007610Y000351D01*
X007564Y000349D01*
X003056Y000349D01*
X003036Y000349D01*
X003331Y000428D02*
X003331Y000506D01*
X003331Y001294D01*
X003331Y001372D01*
X007269Y001372D01*
X007269Y001294D01*
X007269Y000506D01*
X007269Y000428D01*
X003331Y000428D01*
X003056Y000349D02*
X003010Y000350D01*
X002965Y000355D01*
X002920Y000364D01*
X002876Y000376D01*
X002834Y000392D01*
X002792Y000411D01*
X002753Y000433D01*
X002715Y000459D01*
X002680Y000488D01*
X002647Y000520D01*
X002617Y000554D01*
X002590Y000590D01*
X002566Y000629D01*
X002545Y000670D01*
X002528Y000712D01*
X002514Y000755D01*
X002504Y000800D01*
X002498Y000845D01*
X002495Y000890D01*
X002496Y000936D01*
X002501Y000981D01*
X002510Y001026D01*
X002522Y001070D01*
X002538Y001112D01*
X002557Y001154D01*
X002579Y001193D01*
X002605Y001231D01*
X002634Y001266D01*
X002666Y001299D01*
X002700Y001329D01*
X002736Y001356D01*
X002775Y001380D01*
X002816Y001401D01*
X002858Y001418D01*
X002901Y001432D01*
X002946Y001442D01*
X002991Y001448D01*
X003036Y001451D01*
X007564Y001451D01*
X007269Y001294D02*
X007305Y001318D01*
X007343Y001339D01*
X007383Y001357D01*
X007424Y001372D01*
X007466Y001382D01*
X007509Y001389D01*
X007552Y001392D01*
X007596Y001391D01*
X007639Y001386D01*
X007682Y001378D01*
X007724Y001365D01*
X007764Y001349D01*
X007803Y001330D01*
X007840Y001307D01*
X007875Y001281D01*
X007908Y001252D01*
X007938Y001220D01*
X007964Y001186D01*
X007988Y001149D01*
X008009Y001111D01*
X008025Y001071D01*
X008039Y001029D01*
X008048Y000987D01*
X008054Y000944D01*
X008056Y000900D01*
X008054Y000856D01*
X008048Y000813D01*
X008039Y000771D01*
X008025Y000729D01*
X008009Y000689D01*
X007988Y000651D01*
X007964Y000614D01*
X007938Y000580D01*
X007908Y000548D01*
X007875Y000519D01*
X007840Y000493D01*
X007803Y000470D01*
X007764Y000451D01*
X007724Y000435D01*
X007682Y000422D01*
X007639Y000414D01*
X007596Y000409D01*
X007552Y000408D01*
X007509Y000411D01*
X007466Y000418D01*
X007424Y000428D01*
X007383Y000443D01*
X007343Y000461D01*
X007305Y000482D01*
X007269Y000506D01*
X003331Y000506D02*
X003295Y000482D01*
X003257Y000461D01*
X003217Y000443D01*
X003176Y000428D01*
X003134Y000418D01*
X003091Y000411D01*
X003048Y000408D01*
X003004Y000409D01*
X002961Y000414D01*
X002918Y000422D01*
X002876Y000435D01*
X002836Y000451D01*
X002797Y000470D01*
X002760Y000493D01*
X002725Y000519D01*
X002692Y000548D01*
X002662Y000580D01*
X002636Y000614D01*
X002612Y000651D01*
X002591Y000689D01*
X002575Y000729D01*
X002561Y000771D01*
X002552Y000813D01*
X002546Y000856D01*
X002544Y000900D01*
X002546Y000944D01*
X002552Y000987D01*
X002561Y001029D01*
X002575Y001071D01*
X002591Y001111D01*
X002612Y001149D01*
X002636Y001186D01*
X002662Y001220D01*
X002692Y001252D01*
X002725Y001281D01*
X002760Y001307D01*
X002797Y001330D01*
X002836Y001349D01*
X002876Y001365D01*
X002918Y001378D01*
X002961Y001386D01*
X003004Y001391D01*
X003048Y001392D01*
X003091Y001389D01*
X003134Y001382D01*
X003176Y001372D01*
X003217Y001357D01*
X003257Y001339D01*
X003295Y001318D01*
X003331Y001294D01*
X003156Y009399D02*
X003136Y009399D01*
X003156Y009399D02*
X007664Y009399D01*
X007369Y009478D02*
X003431Y009478D01*
X003431Y009556D01*
X003431Y010344D01*
X003431Y010422D01*
X007369Y010422D01*
X007369Y010344D01*
X007369Y009556D01*
X007369Y009478D01*
X007664Y009399D02*
X007710Y009401D01*
X007755Y009407D01*
X007799Y009416D01*
X007843Y009429D01*
X007885Y009445D01*
X007926Y009465D01*
X007965Y009489D01*
X008002Y009515D01*
X008037Y009545D01*
X008069Y009577D01*
X008099Y009612D01*
X008125Y009649D01*
X008149Y009688D01*
X008169Y009729D01*
X008185Y009771D01*
X008198Y009815D01*
X008207Y009859D01*
X008213Y009904D01*
X008215Y009950D01*
X008213Y009996D01*
X008207Y010041D01*
X008198Y010085D01*
X008185Y010129D01*
X008169Y010171D01*
X008149Y010212D01*
X008125Y010251D01*
X008099Y010288D01*
X008069Y010323D01*
X008037Y010355D01*
X008002Y010385D01*
X007965Y010411D01*
X007926Y010435D01*
X007885Y010455D01*
X007843Y010471D01*
X007799Y010484D01*
X007755Y010493D01*
X007710Y010499D01*
X007664Y010501D01*
X003136Y010501D01*
X003431Y010344D02*
X003395Y010368D01*
X003357Y010389D01*
X003317Y010407D01*
X003276Y010422D01*
X003234Y010432D01*
X003191Y010439D01*
X003148Y010442D01*
X003104Y010441D01*
X003061Y010436D01*
X003018Y010428D01*
X002976Y010415D01*
X002936Y010399D01*
X002897Y010380D01*
X002860Y010357D01*
X002825Y010331D01*
X002792Y010302D01*
X002762Y010270D01*
X002736Y010236D01*
X002712Y010199D01*
X002691Y010161D01*
X002675Y010121D01*
X002661Y010079D01*
X002652Y010037D01*
X002646Y009994D01*
X002644Y009950D01*
X002650Y009940D02*
X004370Y009940D01*
X005510Y009870D01*
X005290Y010030D02*
X006430Y009960D01*
X008150Y009960D01*
X008648Y010560D02*
X008696Y010558D01*
X008743Y010552D01*
X008790Y010543D01*
X008837Y010530D01*
X008881Y010514D01*
X008925Y010494D01*
X008967Y010470D01*
X009007Y010444D01*
X009044Y010414D01*
X009079Y010381D01*
X009112Y010346D01*
X009142Y010309D01*
X009168Y010269D01*
X009192Y010227D01*
X009212Y010183D01*
X009228Y010139D01*
X009241Y010092D01*
X009250Y010045D01*
X009256Y009998D01*
X009258Y009950D01*
X009256Y009902D01*
X009250Y009855D01*
X009241Y009808D01*
X009228Y009761D01*
X009212Y009717D01*
X009192Y009673D01*
X009168Y009631D01*
X009142Y009591D01*
X009112Y009554D01*
X009079Y009519D01*
X009044Y009486D01*
X009007Y009456D01*
X008967Y009430D01*
X008925Y009406D01*
X008881Y009386D01*
X008837Y009370D01*
X008790Y009357D01*
X008743Y009348D01*
X008696Y009342D01*
X008648Y009340D01*
X002152Y009340D01*
X002104Y009342D01*
X002057Y009348D01*
X002010Y009357D01*
X001963Y009370D01*
X001919Y009386D01*
X001875Y009406D01*
X001833Y009430D01*
X001793Y009456D01*
X001756Y009486D01*
X001721Y009519D01*
X001688Y009554D01*
X001658Y009591D01*
X001632Y009631D01*
X001608Y009673D01*
X001588Y009717D01*
X001572Y009761D01*
X001559Y009808D01*
X001550Y009855D01*
X001544Y009902D01*
X001542Y009950D01*
X001544Y009998D01*
X001550Y010045D01*
X001559Y010092D01*
X001572Y010139D01*
X001588Y010183D01*
X001608Y010227D01*
X001632Y010269D01*
X001658Y010309D01*
X001688Y010346D01*
X001721Y010381D01*
X001756Y010414D01*
X001793Y010444D01*
X001833Y010470D01*
X001875Y010494D01*
X001919Y010514D01*
X001963Y010530D01*
X002010Y010543D01*
X002057Y010552D01*
X002104Y010558D01*
X002152Y010560D01*
X008648Y010560D01*
X008156Y009950D02*
X008154Y009994D01*
X008148Y010037D01*
X008139Y010079D01*
X008125Y010121D01*
X008109Y010161D01*
X008088Y010199D01*
X008064Y010236D01*
X008038Y010270D01*
X008008Y010302D01*
X007975Y010331D01*
X007940Y010357D01*
X007903Y010380D01*
X007864Y010399D01*
X007824Y010415D01*
X007782Y010428D01*
X007739Y010436D01*
X007696Y010441D01*
X007652Y010442D01*
X007609Y010439D01*
X007566Y010432D01*
X007524Y010422D01*
X007483Y010407D01*
X007443Y010389D01*
X007405Y010368D01*
X007369Y010344D01*
X007369Y009556D02*
X007405Y009532D01*
X007443Y009511D01*
X007483Y009493D01*
X007524Y009478D01*
X007566Y009468D01*
X007609Y009461D01*
X007652Y009458D01*
X007696Y009459D01*
X007739Y009464D01*
X007782Y009472D01*
X007824Y009485D01*
X007864Y009501D01*
X007903Y009520D01*
X007940Y009543D01*
X007975Y009569D01*
X008008Y009598D01*
X008038Y009630D01*
X008064Y009664D01*
X008088Y009701D01*
X008109Y009739D01*
X008125Y009779D01*
X008139Y009821D01*
X008148Y009863D01*
X008154Y009906D01*
X008156Y009950D01*
X003156Y009399D02*
X003110Y009400D01*
X003065Y009405D01*
X003020Y009414D01*
X002976Y009426D01*
X002934Y009442D01*
X002892Y009461D01*
X002853Y009483D01*
X002815Y009509D01*
X002780Y009538D01*
X002747Y009570D01*
X002717Y009604D01*
X002690Y009640D01*
X002666Y009679D01*
X002645Y009720D01*
X002628Y009762D01*
X002614Y009805D01*
X002604Y009850D01*
X002598Y009895D01*
X002595Y009940D01*
X002596Y009986D01*
X002601Y010031D01*
X002610Y010076D01*
X002622Y010120D01*
X002638Y010162D01*
X002657Y010204D01*
X002679Y010243D01*
X002705Y010281D01*
X002734Y010316D01*
X002766Y010349D01*
X002800Y010379D01*
X002836Y010406D01*
X002875Y010430D01*
X002916Y010451D01*
X002958Y010468D01*
X003001Y010482D01*
X003046Y010492D01*
X003091Y010498D01*
X003136Y010501D01*
X002644Y009950D02*
X002646Y009906D01*
X002652Y009863D01*
X002661Y009821D01*
X002675Y009779D01*
X002691Y009739D01*
X002712Y009701D01*
X002736Y009664D01*
X002762Y009630D01*
X002792Y009598D01*
X002825Y009569D01*
X002860Y009543D01*
X002897Y009520D01*
X002936Y009501D01*
X002976Y009485D01*
X003018Y009472D01*
X003061Y009464D01*
X003104Y009459D01*
X003148Y009458D01*
X003191Y009461D01*
X003234Y009468D01*
X003276Y009478D01*
X003317Y009493D01*
X003357Y009511D01*
X003395Y009532D01*
X003431Y009556D01*
D13*
X002400Y009950D03*
X008400Y009950D03*
X008300Y000900D03*
X002300Y000900D03*
D14*
X000828Y005415D02*
X000830Y005457D01*
X000836Y005499D01*
X000846Y005541D01*
X000859Y005581D01*
X000877Y005620D01*
X000898Y005657D01*
X000922Y005691D01*
X000950Y005724D01*
X000980Y005754D01*
X001013Y005780D01*
X001048Y005804D01*
X001086Y005824D01*
X001125Y005840D01*
X001165Y005853D01*
X001207Y005862D01*
X001249Y005867D01*
X001292Y005868D01*
X001334Y005865D01*
X001376Y005858D01*
X001417Y005847D01*
X001457Y005832D01*
X001495Y005814D01*
X001532Y005792D01*
X001566Y005767D01*
X001598Y005739D01*
X001626Y005708D01*
X001652Y005674D01*
X001675Y005638D01*
X001694Y005601D01*
X001710Y005561D01*
X001722Y005520D01*
X001730Y005479D01*
X001734Y005436D01*
X001734Y005394D01*
X001730Y005351D01*
X001722Y005310D01*
X001710Y005269D01*
X001694Y005229D01*
X001675Y005192D01*
X001652Y005156D01*
X001626Y005122D01*
X001598Y005091D01*
X001566Y005063D01*
X001532Y005038D01*
X001495Y005016D01*
X001457Y004998D01*
X001417Y004983D01*
X001376Y004972D01*
X001334Y004965D01*
X001292Y004962D01*
X001249Y004963D01*
X001207Y004968D01*
X001165Y004977D01*
X001125Y004990D01*
X001086Y005006D01*
X001048Y005026D01*
X001013Y005050D01*
X000980Y005076D01*
X000950Y005106D01*
X000922Y005139D01*
X000898Y005173D01*
X000877Y005210D01*
X000859Y005249D01*
X000846Y005289D01*
X000836Y005331D01*
X000830Y005373D01*
X000828Y005415D01*
X008702Y005415D02*
X008704Y005457D01*
X008710Y005499D01*
X008720Y005541D01*
X008733Y005581D01*
X008751Y005620D01*
X008772Y005657D01*
X008796Y005691D01*
X008824Y005724D01*
X008854Y005754D01*
X008887Y005780D01*
X008922Y005804D01*
X008960Y005824D01*
X008999Y005840D01*
X009039Y005853D01*
X009081Y005862D01*
X009123Y005867D01*
X009166Y005868D01*
X009208Y005865D01*
X009250Y005858D01*
X009291Y005847D01*
X009331Y005832D01*
X009369Y005814D01*
X009406Y005792D01*
X009440Y005767D01*
X009472Y005739D01*
X009500Y005708D01*
X009526Y005674D01*
X009549Y005638D01*
X009568Y005601D01*
X009584Y005561D01*
X009596Y005520D01*
X009604Y005479D01*
X009608Y005436D01*
X009608Y005394D01*
X009604Y005351D01*
X009596Y005310D01*
X009584Y005269D01*
X009568Y005229D01*
X009549Y005192D01*
X009526Y005156D01*
X009500Y005122D01*
X009472Y005091D01*
X009440Y005063D01*
X009406Y005038D01*
X009369Y005016D01*
X009331Y004998D01*
X009291Y004983D01*
X009250Y004972D01*
X009208Y004965D01*
X009166Y004962D01*
X009123Y004963D01*
X009081Y004968D01*
X009039Y004977D01*
X008999Y004990D01*
X008960Y005006D01*
X008922Y005026D01*
X008887Y005050D01*
X008854Y005076D01*
X008824Y005106D01*
X008796Y005139D01*
X008772Y005173D01*
X008751Y005210D01*
X008733Y005249D01*
X008720Y005289D01*
X008710Y005331D01*
X008704Y005373D01*
X008702Y005415D01*
M02*
