G75*
G70*
%OFA0B0*%
%FSLAX24Y24*%
%IPPOS*%
%LPD*%
%AMOC8*
5,1,8,0,0,1.08239X$1,22.5*
%
%ADD10C,0.0760*%
%ADD11C,0.0554*%
%ADD12C,0.0396*%
%ADD13C,0.0240*%
D10*
X001800Y000900D03*
X002800Y000900D03*
X007800Y000900D03*
X008800Y000900D03*
X008900Y009950D03*
X007900Y009950D03*
X002900Y009950D03*
X001900Y009950D03*
D11*
X004216Y007077D02*
X004216Y006523D01*
X005200Y006523D02*
X005200Y007077D01*
X006184Y007077D02*
X006184Y006523D01*
X006184Y004627D02*
X006184Y004073D01*
X005200Y004073D02*
X005200Y004627D01*
X004216Y004627D02*
X004216Y004073D01*
D12*
X002700Y002900D03*
X000650Y004000D03*
X002600Y005000D03*
X002600Y006150D03*
X000650Y006800D03*
X002700Y008400D03*
X005200Y010150D03*
X007150Y010150D03*
X007850Y009200D03*
X009750Y009200D03*
X009750Y006800D03*
X007750Y005400D03*
X009750Y004000D03*
X009750Y001650D03*
X007750Y001650D03*
X007050Y000650D03*
X005000Y000650D03*
D13*
X000570Y000570D02*
X000570Y004508D01*
X000696Y004402D01*
X000696Y004402D01*
X001078Y004263D01*
X001484Y004263D01*
X001866Y004402D01*
X002177Y004663D01*
X002177Y004663D01*
X002381Y005015D01*
X002451Y005415D01*
X002381Y005815D01*
X002177Y006167D01*
X001866Y006428D01*
X001484Y006567D01*
X001078Y006567D01*
X000696Y006428D01*
X000570Y006322D01*
X000570Y010260D01*
X001385Y010260D01*
X001344Y010180D01*
X001315Y010090D01*
X001300Y009997D01*
X001300Y009950D01*
X001900Y009950D01*
X002500Y009950D01*
X002900Y009950D01*
X003500Y009950D01*
X003500Y009997D01*
X003485Y010090D01*
X003456Y010180D01*
X003415Y010260D01*
X007336Y010260D01*
X007260Y010077D01*
X007260Y009823D01*
X007357Y009587D01*
X007537Y009407D01*
X007773Y009310D01*
X008027Y009310D01*
X008263Y009407D01*
X008400Y009545D01*
X008537Y009407D01*
X008773Y009310D01*
X009027Y009310D01*
X009263Y009407D01*
X009443Y009587D01*
X009540Y009823D01*
X009540Y010077D01*
X009464Y010260D01*
X009866Y010260D01*
X009866Y006322D01*
X009740Y006428D01*
X009358Y006567D01*
X008952Y006567D01*
X008570Y006428D01*
X008259Y006167D01*
X008056Y005815D01*
X007985Y005415D01*
X008056Y005015D01*
X008056Y005015D01*
X008259Y004663D01*
X008570Y004402D01*
X008952Y004263D01*
X009358Y004263D01*
X009740Y004402D01*
X009866Y004508D01*
X009866Y000570D01*
X009356Y000570D01*
X009440Y000773D01*
X009440Y001027D01*
X009343Y001263D01*
X009163Y001443D01*
X008927Y001540D01*
X008673Y001540D01*
X008437Y001443D01*
X008300Y001305D01*
X008163Y001443D01*
X007927Y001540D01*
X007673Y001540D01*
X007437Y001443D01*
X007257Y001263D01*
X007160Y001027D01*
X007160Y000773D01*
X007244Y000570D01*
X003302Y000570D01*
X003313Y000586D01*
X003356Y000670D01*
X003385Y000759D01*
X003400Y000853D01*
X003400Y000900D01*
X003400Y000947D01*
X003385Y001040D01*
X003356Y001130D01*
X003313Y001214D01*
X003258Y001291D01*
X003191Y001358D01*
X003114Y001413D01*
X003030Y001456D01*
X002940Y001485D01*
X002847Y001500D01*
X002800Y001500D01*
X002800Y000900D01*
X003400Y000900D01*
X002800Y000900D01*
X002800Y000900D01*
X002800Y000900D01*
X002800Y001500D01*
X002753Y001500D01*
X002659Y001485D01*
X002570Y001456D01*
X002486Y001413D01*
X002409Y001358D01*
X002342Y001291D01*
X002300Y001233D01*
X002258Y001291D01*
X002191Y001358D01*
X002114Y001413D01*
X002030Y001456D01*
X001940Y001485D01*
X001847Y001500D01*
X001800Y001500D01*
X001800Y000900D01*
X001800Y000900D01*
X002800Y000900D01*
X002800Y000900D01*
X002200Y000900D01*
X001800Y000900D01*
X001800Y000900D01*
X001800Y000900D01*
X001200Y000900D01*
X001200Y000947D01*
X001215Y001040D01*
X001244Y001130D01*
X001287Y001214D01*
X001342Y001291D01*
X001409Y001358D01*
X001486Y001413D01*
X001570Y001456D01*
X001659Y001485D01*
X001753Y001500D01*
X001800Y001500D01*
X001800Y000900D01*
X001200Y000900D01*
X001200Y000853D01*
X001215Y000759D01*
X001244Y000670D01*
X001287Y000586D01*
X001298Y000570D01*
X000570Y000570D01*
X000570Y000577D02*
X001293Y000577D01*
X001206Y000816D02*
X000570Y000816D01*
X000570Y001054D02*
X001219Y001054D01*
X001344Y001293D02*
X000570Y001293D01*
X000570Y001531D02*
X007651Y001531D01*
X007949Y001531D02*
X008651Y001531D01*
X008949Y001531D02*
X009866Y001531D01*
X009866Y001770D02*
X000570Y001770D01*
X000570Y002008D02*
X009866Y002008D01*
X009866Y002247D02*
X000570Y002247D01*
X000570Y002485D02*
X009866Y002485D01*
X009866Y002724D02*
X000570Y002724D01*
X000570Y002962D02*
X009866Y002962D01*
X009866Y003201D02*
X000570Y003201D01*
X000570Y003439D02*
X009866Y003439D01*
X009866Y003678D02*
X006549Y003678D01*
X006489Y003617D02*
X006640Y003769D01*
X006721Y003966D01*
X006721Y004734D01*
X006640Y004931D01*
X006489Y005083D01*
X006291Y005164D01*
X006077Y005164D01*
X005880Y005083D01*
X005729Y004931D01*
X005692Y004843D01*
X005655Y004931D01*
X005504Y005083D01*
X005307Y005164D01*
X005093Y005164D01*
X004896Y005083D01*
X004745Y004931D01*
X004708Y004843D01*
X004671Y004931D01*
X004520Y005083D01*
X004323Y005164D01*
X004109Y005164D01*
X003911Y005083D01*
X003760Y004931D01*
X003679Y004734D01*
X003679Y003966D01*
X003760Y003769D01*
X003911Y003617D01*
X004109Y003536D01*
X004323Y003536D01*
X004520Y003617D01*
X004671Y003769D01*
X004708Y003857D01*
X004745Y003769D01*
X004896Y003617D01*
X005093Y003536D01*
X005307Y003536D01*
X005504Y003617D01*
X005655Y003769D01*
X005692Y003857D01*
X005729Y003769D01*
X005880Y003617D01*
X006077Y003536D01*
X006291Y003536D01*
X006489Y003617D01*
X006701Y003916D02*
X009866Y003916D01*
X009866Y004155D02*
X006721Y004155D01*
X006721Y004393D02*
X008594Y004393D01*
X008570Y004402D02*
X008570Y004402D01*
X008296Y004632D02*
X006721Y004632D01*
X006665Y004870D02*
X008139Y004870D01*
X008259Y004663D02*
X008259Y004663D01*
X008259Y004663D01*
X008039Y005109D02*
X006426Y005109D01*
X005943Y005109D02*
X005442Y005109D01*
X005681Y004870D02*
X005703Y004870D01*
X004958Y005109D02*
X004457Y005109D01*
X004697Y004870D02*
X004719Y004870D01*
X003974Y005109D02*
X002397Y005109D01*
X002381Y005015D02*
X002381Y005015D01*
X002297Y004870D02*
X003735Y004870D01*
X003679Y004632D02*
X002140Y004632D01*
X001866Y004402D02*
X001866Y004402D01*
X001842Y004393D02*
X003679Y004393D01*
X003679Y004155D02*
X000570Y004155D01*
X000570Y004393D02*
X000720Y004393D01*
X000570Y003916D02*
X003699Y003916D01*
X003851Y003678D02*
X000570Y003678D01*
X002439Y005347D02*
X007997Y005347D01*
X007985Y005415D02*
X007985Y005415D01*
X008015Y005586D02*
X002421Y005586D01*
X002381Y005815D02*
X002381Y005815D01*
X002375Y005824D02*
X008061Y005824D01*
X008056Y005815D02*
X008056Y005815D01*
X008199Y006063D02*
X006477Y006063D01*
X006489Y006067D02*
X006640Y006219D01*
X006721Y006416D01*
X006721Y007184D01*
X006640Y007381D01*
X006489Y007533D01*
X006291Y007614D01*
X006077Y007614D01*
X005880Y007533D01*
X005729Y007381D01*
X005692Y007293D01*
X005655Y007381D01*
X005504Y007533D01*
X005307Y007614D01*
X005093Y007614D01*
X004896Y007533D01*
X004745Y007381D01*
X004708Y007293D01*
X004671Y007381D01*
X004520Y007533D01*
X004323Y007614D01*
X004109Y007614D01*
X003911Y007533D01*
X003760Y007381D01*
X003679Y007184D01*
X003679Y006416D01*
X003760Y006219D01*
X003911Y006067D01*
X004109Y005986D01*
X004323Y005986D01*
X004520Y006067D01*
X004671Y006219D01*
X004708Y006307D01*
X004745Y006219D01*
X004896Y006067D01*
X005093Y005986D01*
X005307Y005986D01*
X005504Y006067D01*
X005655Y006219D01*
X005692Y006307D01*
X005729Y006219D01*
X005880Y006067D01*
X006077Y005986D01*
X006291Y005986D01*
X006489Y006067D01*
X006674Y006301D02*
X008419Y006301D01*
X008570Y006428D02*
X008570Y006428D01*
X008876Y006540D02*
X006721Y006540D01*
X006721Y006778D02*
X009866Y006778D01*
X009866Y006540D02*
X009434Y006540D01*
X009740Y006428D02*
X009740Y006428D01*
X009866Y007017D02*
X006721Y007017D01*
X006692Y007255D02*
X009866Y007255D01*
X009866Y007494D02*
X006528Y007494D01*
X005841Y007494D02*
X005543Y007494D01*
X004857Y007494D02*
X004559Y007494D01*
X003872Y007494D02*
X000570Y007494D01*
X000570Y007732D02*
X009866Y007732D01*
X009866Y007971D02*
X000570Y007971D01*
X000570Y008209D02*
X009866Y008209D01*
X009866Y008448D02*
X000570Y008448D01*
X000570Y008686D02*
X009866Y008686D01*
X009866Y008925D02*
X000570Y008925D01*
X000570Y009163D02*
X009866Y009163D01*
X009866Y009402D02*
X009248Y009402D01*
X009464Y009640D02*
X009866Y009640D01*
X009866Y009879D02*
X009540Y009879D01*
X009524Y010117D02*
X009866Y010117D01*
X008900Y009950D02*
X007900Y009950D01*
X007336Y009640D02*
X003415Y009640D01*
X003413Y009636D02*
X003456Y009720D01*
X003485Y009809D01*
X003500Y009903D01*
X003500Y009950D01*
X002900Y009950D01*
X002900Y009950D01*
X002900Y009950D01*
X002900Y009350D01*
X002947Y009350D01*
X003040Y009365D01*
X003130Y009394D01*
X003214Y009437D01*
X003291Y009492D01*
X003358Y009559D01*
X003413Y009636D01*
X003145Y009402D02*
X007552Y009402D01*
X007260Y009879D02*
X003496Y009879D01*
X003477Y010117D02*
X007276Y010117D01*
X008248Y009402D02*
X008552Y009402D01*
X005695Y006301D02*
X005690Y006301D01*
X005492Y006063D02*
X005892Y006063D01*
X004908Y006063D02*
X004508Y006063D01*
X004705Y006301D02*
X004710Y006301D01*
X003923Y006063D02*
X002238Y006063D01*
X002177Y006167D02*
X002177Y006167D01*
X002177Y006167D01*
X002018Y006301D02*
X003726Y006301D01*
X003679Y006540D02*
X001560Y006540D01*
X001866Y006428D02*
X001866Y006428D01*
X001002Y006540D02*
X000570Y006540D01*
X000696Y006428D02*
X000696Y006428D01*
X000570Y006778D02*
X003679Y006778D01*
X003679Y007017D02*
X000570Y007017D01*
X000570Y007255D02*
X003708Y007255D01*
X002900Y009350D02*
X002900Y009950D01*
X002900Y009950D01*
X001900Y009950D01*
X001900Y009950D01*
X001900Y009350D01*
X001947Y009350D01*
X002040Y009365D01*
X002130Y009394D01*
X002214Y009437D01*
X002291Y009492D01*
X002358Y009559D01*
X002400Y009617D01*
X002442Y009559D01*
X002509Y009492D01*
X002586Y009437D01*
X002670Y009394D01*
X002759Y009365D01*
X002853Y009350D01*
X002900Y009350D01*
X002900Y009402D02*
X002900Y009402D01*
X002655Y009402D02*
X002145Y009402D01*
X001900Y009402D02*
X001900Y009402D01*
X001900Y009350D02*
X001900Y009950D01*
X001900Y009950D01*
X001900Y009950D01*
X001300Y009950D01*
X001300Y009903D01*
X001315Y009809D01*
X001344Y009720D01*
X001387Y009636D01*
X001442Y009559D01*
X001509Y009492D01*
X001586Y009437D01*
X001670Y009394D01*
X001759Y009365D01*
X001853Y009350D01*
X001900Y009350D01*
X001655Y009402D02*
X000570Y009402D01*
X000570Y009640D02*
X001385Y009640D01*
X001304Y009879D02*
X000570Y009879D01*
X000570Y010117D02*
X001323Y010117D01*
X001900Y009879D02*
X001900Y009879D01*
X001900Y009640D02*
X001900Y009640D01*
X002900Y009640D02*
X002900Y009640D01*
X002900Y009879D02*
X002900Y009879D01*
X008259Y006167D02*
X008259Y006167D01*
X009716Y004393D02*
X009866Y004393D01*
X009740Y004402D02*
X009740Y004402D01*
X009866Y001293D02*
X009313Y001293D01*
X009429Y001054D02*
X009866Y001054D01*
X009866Y000816D02*
X009440Y000816D01*
X009359Y000577D02*
X009866Y000577D01*
X008800Y000900D02*
X007800Y000900D01*
X007241Y000577D02*
X003307Y000577D01*
X003394Y000816D02*
X007160Y000816D01*
X007171Y001054D02*
X003381Y001054D01*
X003256Y001293D02*
X007287Y001293D01*
X005820Y003678D02*
X005564Y003678D01*
X004836Y003678D02*
X004580Y003678D01*
X002800Y001293D02*
X002800Y001293D01*
X002800Y001054D02*
X002800Y001054D01*
X002344Y001293D02*
X002256Y001293D01*
X001800Y001293D02*
X001800Y001293D01*
X001800Y001054D02*
X001800Y001054D01*
M02*
