G75*
G70*
%OFA0B0*%
%FSLAX24Y24*%
%IPPOS*%
%LPD*%
%AMOC8*
5,1,8,0,0,1.08239X$1,22.5*
%
%ADD10R,0.0671X0.0592*%
%ADD11R,0.0592X0.0671*%
%ADD12R,0.0474X0.0631*%
%ADD13R,0.1580X0.0840*%
%ADD14C,0.0840*%
%ADD15C,0.0634*%
%ADD16C,0.0907*%
%ADD17R,0.0631X0.0474*%
D10*
X005400Y002326D03*
X005400Y003074D03*
X007650Y003074D03*
X007650Y002326D03*
X006650Y008226D03*
X006650Y008974D03*
X004450Y008974D03*
X004450Y008226D03*
D11*
X003474Y007700D03*
X002726Y007700D03*
X002726Y006850D03*
X003474Y006850D03*
X003474Y004350D03*
X002726Y004350D03*
X002726Y003550D03*
X003474Y003550D03*
D12*
X006176Y003133D03*
X006924Y003133D03*
X006550Y002267D03*
X005924Y008167D03*
X005176Y008167D03*
X005550Y009033D03*
D13*
X001550Y000900D03*
X009050Y000900D03*
X009150Y009950D03*
X001650Y009950D03*
D14*
X001900Y009950D03*
X002900Y009950D03*
X007900Y009950D03*
X008900Y009950D03*
X008800Y000900D03*
X007800Y000900D03*
X002800Y000900D03*
X001800Y000900D03*
D15*
X004216Y004073D02*
X004216Y004627D01*
X005200Y004627D02*
X005200Y004073D01*
X006184Y004073D02*
X006184Y004627D01*
X006184Y006523D02*
X006184Y007077D01*
X005200Y007077D02*
X005200Y006523D01*
X004216Y006523D02*
X004216Y007077D01*
D16*
X001281Y005415D03*
X009155Y005415D03*
D17*
X003793Y005196D03*
X003793Y005944D03*
X002927Y005570D03*
M02*
