G75*
G70*
%OFA0B0*%
%FSLAX24Y24*%
%IPPOS*%
%LPD*%
%AMOC8*
5,1,8,0,0,1.08239X$1,22.5*
%
%ADD10R,0.0591X0.0512*%
%ADD11R,0.0512X0.0591*%
%ADD12R,0.0394X0.0551*%
%ADD13R,0.1500X0.0760*%
%ADD14C,0.0760*%
%ADD15C,0.0554*%
%ADD16R,0.0551X0.0394*%
%ADD17C,0.0240*%
%ADD18C,0.0396*%
%ADD19C,0.0140*%
%ADD20C,0.0100*%
%ADD21C,0.0120*%
D10*
X005400Y002326D03*
X005400Y003074D03*
X007650Y003074D03*
X007650Y002326D03*
X006650Y008226D03*
X006650Y008974D03*
X004450Y008974D03*
X004450Y008226D03*
D11*
X003474Y007700D03*
X002726Y007700D03*
X002726Y006850D03*
X003474Y006850D03*
X003474Y004350D03*
X002726Y004350D03*
X002726Y003550D03*
X003474Y003550D03*
D12*
X006176Y003133D03*
X006924Y003133D03*
X006550Y002267D03*
X005924Y008167D03*
X005176Y008167D03*
X005550Y009033D03*
D13*
X009150Y009950D03*
X001650Y009950D03*
X001550Y000900D03*
X009050Y000900D03*
D14*
X008800Y000900D03*
X007800Y000900D03*
X002800Y000900D03*
X001800Y000900D03*
X001900Y009950D03*
X002900Y009950D03*
X007900Y009950D03*
X008900Y009950D03*
D15*
X006184Y007077D02*
X006184Y006523D01*
X005200Y006523D02*
X005200Y007077D01*
X004216Y007077D02*
X004216Y006523D01*
X004216Y004627D02*
X004216Y004073D01*
X005200Y004073D02*
X005200Y004627D01*
X006184Y004627D02*
X006184Y004073D01*
D16*
X003793Y005196D03*
X003793Y005944D03*
X002927Y005570D03*
D17*
X002900Y005570D01*
X002900Y006200D01*
X002726Y006200D01*
X002726Y006850D01*
X003474Y006850D02*
X003524Y006800D01*
X004216Y006800D01*
X004216Y006367D01*
X003793Y005944D01*
X003793Y005196D02*
X003804Y005196D01*
X004200Y004800D01*
X004200Y004366D01*
X003490Y004366D01*
X003474Y004350D01*
X003474Y003550D01*
X002726Y003550D02*
X002700Y003524D01*
X002700Y002900D01*
X002800Y002400D02*
X002800Y000900D01*
X001550Y000900D01*
X001550Y002300D01*
X001000Y002300D01*
X001550Y000900D02*
X001800Y000900D01*
X002800Y000900D02*
X003800Y000900D01*
X003800Y001600D01*
X003200Y001600D01*
X005400Y002326D02*
X005459Y002267D01*
X006550Y002267D01*
X006550Y002150D01*
X007800Y000900D01*
X008800Y000900D01*
X009050Y000900D01*
X009300Y000900D01*
X007650Y002326D02*
X007591Y002267D01*
X006550Y002267D01*
X006117Y003074D02*
X006176Y003133D01*
X006184Y003141D01*
X006184Y004350D01*
X006750Y003950D02*
X006750Y004850D01*
X006184Y005416D01*
X006184Y006800D01*
X005200Y006800D02*
X005200Y007300D01*
X005900Y008000D01*
X005900Y008143D01*
X005924Y008167D01*
X006591Y008167D01*
X006650Y008226D01*
X006650Y008974D02*
X006674Y008974D01*
X007650Y009950D01*
X007900Y009950D01*
X008900Y009950D01*
X009150Y009950D01*
X006650Y008974D02*
X006591Y009033D01*
X005550Y009033D01*
X004509Y009033D01*
X004450Y008974D01*
X004450Y008226D02*
X004450Y007850D01*
X004700Y007600D01*
X004700Y007400D01*
X004509Y008167D02*
X004450Y008226D01*
X004509Y008167D02*
X005176Y008167D01*
X003600Y009100D02*
X001650Y009100D01*
X001650Y009950D01*
X001900Y009950D01*
X002900Y009950D01*
X003600Y009950D01*
X003600Y009100D01*
X002900Y009050D02*
X002900Y009950D01*
X002900Y008450D01*
X002700Y008400D02*
X002700Y007700D01*
X002726Y007700D01*
X003474Y007700D02*
X003474Y006850D01*
X004700Y006200D02*
X004700Y005350D01*
X005200Y004850D01*
X005200Y004350D01*
X004216Y004350D02*
X004200Y004366D01*
X005400Y003074D02*
X006117Y003074D01*
X006924Y003133D02*
X006924Y003776D01*
X006750Y003950D01*
X006924Y003133D02*
X006983Y003074D01*
X007650Y003074D01*
X002900Y005000D02*
X002900Y005570D01*
X002900Y005000D02*
X002726Y005000D01*
X002600Y005000D01*
X002726Y005000D02*
X002726Y004350D01*
D18*
X002600Y005000D03*
X002600Y006150D03*
X000650Y006800D03*
X002700Y008400D03*
X005200Y010150D03*
X007150Y010150D03*
X007850Y009200D03*
X009750Y009200D03*
X009750Y006800D03*
X007750Y005400D03*
X009750Y004000D03*
X009750Y001650D03*
X007750Y001650D03*
X007050Y000650D03*
X005000Y000650D03*
X002700Y002900D03*
X000650Y004000D03*
D19*
X000520Y004164D02*
X000520Y000520D01*
X000630Y000520D01*
X000630Y000830D01*
X001254Y000830D01*
X001250Y000857D01*
X001250Y000900D01*
X001480Y000900D01*
X001480Y000900D01*
X001250Y000900D01*
X001250Y000943D01*
X001254Y000970D01*
X000630Y000970D01*
X000630Y001302D01*
X000642Y001346D01*
X000642Y001347D02*
X000520Y001347D01*
X000520Y001485D02*
X006748Y001485D01*
X006610Y001624D02*
X000520Y001624D01*
X000520Y001762D02*
X006471Y001762D01*
X006452Y001781D02*
X007212Y001022D01*
X007210Y001017D01*
X007210Y000783D01*
X007300Y000566D01*
X007346Y000520D01*
X003198Y000520D01*
X003220Y000542D01*
X003270Y000612D01*
X003310Y000689D01*
X003336Y000771D01*
X003350Y000857D01*
X003350Y000900D01*
X003350Y000943D01*
X003336Y001029D01*
X003310Y001111D01*
X003270Y001188D01*
X003220Y001258D01*
X003158Y001320D01*
X003088Y001370D01*
X003011Y001410D01*
X002929Y001436D01*
X002843Y001450D01*
X002800Y001450D01*
X002800Y000900D01*
X002800Y000900D01*
X003350Y000900D01*
X002800Y000900D01*
X002800Y000900D01*
X002800Y001450D01*
X002757Y001450D01*
X002671Y001436D01*
X002589Y001410D01*
X002512Y001370D01*
X002462Y001334D01*
X002458Y001346D01*
X002458Y001347D02*
X002479Y001347D01*
X002458Y001346D02*
X002436Y001384D01*
X002404Y001416D01*
X002366Y001438D01*
X002322Y001450D01*
X001620Y001450D01*
X001620Y001420D01*
X001589Y001410D01*
X001512Y001370D01*
X001480Y001347D01*
X001480Y001450D01*
X000778Y001450D01*
X000734Y001438D01*
X000696Y001416D01*
X000664Y001384D01*
X000642Y001346D01*
X000630Y001208D02*
X000520Y001208D01*
X000520Y001070D02*
X000630Y001070D01*
X000520Y000931D02*
X001250Y000931D01*
X001620Y000900D02*
X001800Y000900D01*
X002800Y000900D01*
X002800Y000900D01*
X002350Y000900D01*
X001800Y000900D01*
X001800Y000900D01*
X001800Y000900D01*
X001620Y000900D01*
X001620Y000900D01*
X000630Y000793D02*
X000520Y000793D01*
X000520Y000654D02*
X000630Y000654D01*
X000520Y001901D02*
X004977Y001901D01*
X005018Y001860D02*
X004895Y001983D01*
X004895Y002669D01*
X004926Y002700D01*
X004895Y002731D01*
X004895Y003417D01*
X005018Y003540D01*
X005782Y003540D01*
X005798Y003524D01*
X005854Y003581D01*
X005854Y003714D01*
X005771Y003797D01*
X005697Y003976D01*
X005697Y004724D01*
X005771Y004903D01*
X005908Y005040D01*
X006039Y005094D01*
X005997Y005136D01*
X005904Y005229D01*
X005854Y005350D01*
X005854Y006164D01*
X005771Y006247D01*
X005697Y006426D01*
X005697Y007174D01*
X005771Y007353D01*
X005908Y007490D01*
X006087Y007564D01*
X006281Y007564D01*
X006460Y007490D01*
X006597Y007353D01*
X006671Y007174D01*
X006671Y006426D01*
X006597Y006247D01*
X006514Y006164D01*
X006514Y005552D01*
X007030Y005037D01*
X007080Y004916D01*
X007080Y004087D01*
X007204Y003963D01*
X007254Y003842D01*
X007254Y003572D01*
X007287Y003540D01*
X008032Y003540D01*
X008155Y003417D01*
X008155Y002731D01*
X008124Y002700D01*
X008155Y002669D01*
X008155Y001983D01*
X008032Y001860D01*
X007307Y001860D01*
X007678Y001488D01*
X007683Y001490D01*
X007917Y001490D01*
X008126Y001403D01*
X008213Y001490D01*
X009887Y001490D01*
X009916Y001461D01*
X009916Y004164D01*
X008990Y004164D01*
X008672Y004249D01*
X008387Y004414D01*
X008154Y004647D01*
X007989Y004932D01*
X007904Y005250D01*
X007904Y005580D01*
X007989Y005898D01*
X008154Y006183D01*
X008387Y006416D01*
X008672Y006581D01*
X008990Y006666D01*
X009916Y006666D01*
X009916Y009360D01*
X008313Y009360D01*
X008226Y009447D01*
X008017Y009360D01*
X007783Y009360D01*
X007602Y009435D01*
X007155Y008989D01*
X007155Y008631D01*
X007124Y008600D01*
X007155Y008569D01*
X007155Y007883D01*
X007032Y007760D01*
X006287Y007760D01*
X006208Y007681D01*
X006048Y007681D01*
X005644Y007278D01*
X005687Y007174D01*
X005687Y006426D01*
X005613Y006247D01*
X005476Y006110D01*
X005297Y006036D01*
X005103Y006036D01*
X005030Y006066D01*
X005030Y005487D01*
X005480Y005037D01*
X005480Y005036D01*
X005613Y004903D01*
X005687Y004724D01*
X005687Y003976D01*
X005613Y003797D01*
X005476Y003660D01*
X005297Y003586D01*
X005103Y003586D01*
X004924Y003660D01*
X004787Y003797D01*
X004713Y003976D01*
X004713Y004724D01*
X004756Y004828D01*
X004513Y005070D01*
X004420Y005163D01*
X004370Y005284D01*
X004370Y006054D01*
X004279Y005963D01*
X004279Y005660D01*
X004188Y005570D01*
X004279Y005480D01*
X004279Y005188D01*
X004380Y005086D01*
X004492Y005040D01*
X004629Y004903D01*
X004703Y004724D01*
X004703Y003976D01*
X004629Y003797D01*
X004492Y003660D01*
X004313Y003586D01*
X004119Y003586D01*
X003940Y003660D01*
X003940Y003168D01*
X003817Y003045D01*
X003131Y003045D01*
X003068Y003108D01*
X003048Y003096D01*
X003004Y003085D01*
X002784Y003085D01*
X002784Y003492D01*
X002668Y003492D01*
X002668Y003085D01*
X002448Y003085D01*
X002404Y003096D01*
X002366Y003119D01*
X002334Y003150D01*
X002312Y003189D01*
X002300Y003232D01*
X002300Y003492D01*
X002668Y003492D01*
X002668Y003608D01*
X002668Y004292D01*
X002784Y004292D01*
X002784Y004015D01*
X002784Y003608D01*
X002668Y003608D01*
X002300Y003608D01*
X002300Y003868D01*
X002312Y003911D01*
X002334Y003950D01*
X002334Y003950D01*
X002312Y003989D01*
X002300Y004032D01*
X002300Y004292D01*
X002668Y004292D01*
X002668Y004408D01*
X002668Y004815D01*
X002448Y004815D01*
X002404Y004804D01*
X002366Y004781D01*
X002352Y004768D01*
X002447Y004932D01*
X002532Y005250D01*
X002532Y005252D01*
X002547Y005237D01*
X002586Y005215D01*
X002629Y005203D01*
X002899Y005203D01*
X002899Y005542D01*
X002955Y005542D01*
X003369Y005542D01*
X003398Y005570D01*
X003369Y005598D01*
X002955Y005598D01*
X002955Y005542D01*
X002955Y005203D01*
X003225Y005203D01*
X003268Y005215D01*
X003307Y005237D01*
X003307Y005238D01*
X003307Y004912D01*
X003364Y004855D01*
X003131Y004855D01*
X003068Y004792D01*
X003048Y004804D01*
X003004Y004815D01*
X002784Y004815D01*
X002784Y004408D01*
X002668Y004408D01*
X002300Y004408D01*
X002300Y004668D01*
X002305Y004686D01*
X002282Y004647D01*
X002049Y004414D01*
X001764Y004249D01*
X001446Y004164D01*
X000520Y004164D01*
X000520Y004117D02*
X002300Y004117D01*
X002300Y004255D02*
X001774Y004255D01*
X002014Y004394D02*
X002668Y004394D01*
X002668Y004532D02*
X002784Y004532D01*
X002784Y004671D02*
X002668Y004671D01*
X002668Y004809D02*
X002784Y004809D01*
X003028Y004809D02*
X003085Y004809D01*
X003307Y004948D02*
X002451Y004948D01*
X002424Y004809D02*
X002376Y004809D01*
X002301Y004671D02*
X002296Y004671D01*
X002300Y004532D02*
X002167Y004532D01*
X002668Y004255D02*
X002784Y004255D01*
X002784Y004117D02*
X002668Y004117D01*
X002668Y003978D02*
X002784Y003978D01*
X002784Y003840D02*
X002668Y003840D01*
X002668Y003701D02*
X002784Y003701D01*
X002668Y003563D02*
X000520Y003563D01*
X000520Y003424D02*
X002300Y003424D01*
X002300Y003286D02*
X000520Y003286D01*
X000520Y003147D02*
X002337Y003147D01*
X002668Y003147D02*
X002784Y003147D01*
X002784Y003286D02*
X002668Y003286D01*
X002668Y003424D02*
X002784Y003424D01*
X002300Y003701D02*
X000520Y003701D01*
X000520Y003840D02*
X002300Y003840D01*
X002334Y003950D02*
X002334Y003950D01*
X002318Y003978D02*
X000520Y003978D01*
X000520Y003009D02*
X004895Y003009D01*
X004895Y002870D02*
X000520Y002870D01*
X000520Y002732D02*
X004895Y002732D01*
X004895Y002593D02*
X000520Y002593D01*
X000520Y002455D02*
X004895Y002455D01*
X004895Y002316D02*
X000520Y002316D01*
X000520Y002178D02*
X004895Y002178D01*
X004895Y002039D02*
X000520Y002039D01*
X002800Y001347D02*
X002800Y001347D01*
X002800Y001208D02*
X002800Y001208D01*
X002800Y001070D02*
X002800Y001070D01*
X002800Y000931D02*
X002800Y000931D01*
X003121Y001347D02*
X006887Y001347D01*
X007025Y001208D02*
X003256Y001208D01*
X003323Y001070D02*
X007164Y001070D01*
X007210Y000931D02*
X003350Y000931D01*
X003340Y000793D02*
X007210Y000793D01*
X007263Y000654D02*
X003292Y000654D01*
X005018Y001860D02*
X005782Y001860D01*
X005859Y001937D01*
X006143Y001937D01*
X006143Y001904D01*
X006266Y001781D01*
X006452Y001781D01*
X006147Y001901D02*
X005823Y001901D01*
X004895Y003147D02*
X003919Y003147D01*
X003940Y003286D02*
X004895Y003286D01*
X004902Y003424D02*
X003940Y003424D01*
X003940Y003563D02*
X005836Y003563D01*
X005854Y003701D02*
X005517Y003701D01*
X005631Y003840D02*
X005754Y003840D01*
X005697Y003978D02*
X005687Y003978D01*
X005687Y004117D02*
X005697Y004117D01*
X005687Y004255D02*
X005697Y004255D01*
X005687Y004394D02*
X005697Y004394D01*
X005687Y004532D02*
X005697Y004532D01*
X005687Y004671D02*
X005697Y004671D01*
X005732Y004809D02*
X005652Y004809D01*
X005569Y004948D02*
X005816Y004948D01*
X006019Y005086D02*
X005431Y005086D01*
X005292Y005225D02*
X005909Y005225D01*
X005854Y005363D02*
X005154Y005363D01*
X005030Y005502D02*
X005854Y005502D01*
X005854Y005640D02*
X005030Y005640D01*
X005030Y005779D02*
X005854Y005779D01*
X005854Y005917D02*
X005030Y005917D01*
X005030Y006056D02*
X005055Y006056D01*
X005345Y006056D02*
X005854Y006056D01*
X005824Y006194D02*
X005560Y006194D01*
X005648Y006333D02*
X005736Y006333D01*
X005697Y006471D02*
X005687Y006471D01*
X005687Y006610D02*
X005697Y006610D01*
X005687Y006748D02*
X005697Y006748D01*
X005687Y006887D02*
X005697Y006887D01*
X005687Y007025D02*
X005697Y007025D01*
X005687Y007164D02*
X005697Y007164D01*
X005669Y007302D02*
X005750Y007302D01*
X005807Y007441D02*
X005859Y007441D01*
X005946Y007579D02*
X009916Y007579D01*
X009916Y007441D02*
X006510Y007441D01*
X006618Y007302D02*
X009916Y007302D01*
X009916Y007164D02*
X006671Y007164D01*
X006671Y007025D02*
X009916Y007025D01*
X009916Y006887D02*
X006671Y006887D01*
X006671Y006748D02*
X009916Y006748D01*
X009916Y007718D02*
X006244Y007718D01*
X007128Y007856D02*
X009916Y007856D01*
X009916Y007995D02*
X007155Y007995D01*
X007155Y008133D02*
X009916Y008133D01*
X009916Y008272D02*
X007155Y008272D01*
X007155Y008410D02*
X009916Y008410D01*
X009916Y008549D02*
X007155Y008549D01*
X007155Y008687D02*
X009916Y008687D01*
X009916Y008826D02*
X007155Y008826D01*
X007155Y008964D02*
X009916Y008964D01*
X009916Y009103D02*
X007269Y009103D01*
X007408Y009241D02*
X009916Y009241D01*
X008293Y009380D02*
X008064Y009380D01*
X007736Y009380D02*
X007546Y009380D01*
X007028Y009795D02*
X003428Y009795D01*
X003436Y009821D02*
X003450Y009907D01*
X003450Y009950D01*
X003450Y009993D01*
X003436Y010079D01*
X003410Y010161D01*
X003370Y010238D01*
X003326Y010300D01*
X007416Y010300D01*
X007400Y010284D01*
X007317Y010083D01*
X006673Y009440D01*
X006268Y009440D01*
X006191Y009363D01*
X005957Y009363D01*
X005957Y009396D01*
X005834Y009519D01*
X005266Y009519D01*
X005143Y009396D01*
X005143Y009363D01*
X004909Y009363D01*
X004832Y009440D01*
X004068Y009440D01*
X003945Y009317D01*
X003945Y008631D01*
X003976Y008600D01*
X003945Y008569D01*
X003945Y007883D01*
X004068Y007760D01*
X004130Y007760D01*
X004170Y007663D01*
X004269Y007564D01*
X004119Y007564D01*
X003940Y007490D01*
X003940Y008082D01*
X003817Y008205D01*
X003131Y008205D01*
X003068Y008142D01*
X003048Y008154D01*
X003004Y008165D01*
X002784Y008165D01*
X002784Y007758D01*
X002668Y007758D01*
X002668Y008165D01*
X002448Y008165D01*
X002404Y008154D01*
X002366Y008131D01*
X002334Y008100D01*
X002312Y008061D01*
X002300Y008018D01*
X002300Y007758D01*
X002668Y007758D01*
X002668Y007642D01*
X002784Y007642D01*
X002784Y006908D01*
X002668Y006908D01*
X002668Y007235D01*
X002668Y007642D01*
X002300Y007642D01*
X002300Y007382D01*
X002312Y007339D01*
X002334Y007300D01*
X002359Y007275D01*
X002334Y007250D01*
X002312Y007211D01*
X002300Y007168D01*
X002300Y006908D01*
X002668Y006908D01*
X002668Y006792D01*
X002784Y006792D01*
X002784Y006385D01*
X003004Y006385D01*
X003048Y006396D01*
X003068Y006408D01*
X003131Y006345D01*
X003424Y006345D01*
X003307Y006228D01*
X003307Y005902D01*
X003307Y005903D01*
X003268Y005925D01*
X003225Y005937D01*
X002955Y005937D01*
X002955Y005598D01*
X002899Y005598D01*
X002899Y005937D01*
X002629Y005937D01*
X002586Y005925D01*
X002547Y005903D01*
X002515Y005871D01*
X002493Y005832D01*
X002481Y005789D01*
X002481Y005769D01*
X002447Y005898D01*
X002282Y006183D01*
X002049Y006416D01*
X001764Y006581D01*
X001446Y006666D01*
X000520Y006666D01*
X000520Y010300D01*
X000730Y010300D01*
X000730Y010020D01*
X001354Y010020D01*
X001350Y009993D01*
X001350Y009950D01*
X001580Y009950D01*
X001580Y009950D01*
X001350Y009950D01*
X001350Y009907D01*
X001354Y009880D01*
X000730Y009880D01*
X000730Y009548D01*
X000742Y009504D01*
X000764Y009466D01*
X000796Y009434D01*
X000834Y009412D01*
X000878Y009400D01*
X001580Y009400D01*
X001580Y009503D01*
X001612Y009480D01*
X001689Y009440D01*
X001720Y009430D01*
X001720Y009400D01*
X001861Y009400D01*
X001900Y009400D01*
X002422Y009400D01*
X002466Y009412D01*
X002504Y009434D01*
X002536Y009466D01*
X002558Y009504D01*
X002562Y009516D01*
X002612Y009480D01*
X002689Y009440D01*
X002771Y009414D01*
X002857Y009400D01*
X002900Y009400D01*
X002943Y009400D01*
X003029Y009414D01*
X003111Y009440D01*
X003188Y009480D01*
X003258Y009530D01*
X003320Y009592D01*
X003370Y009662D01*
X003410Y009739D01*
X003436Y009821D01*
X003450Y009934D02*
X007167Y009934D01*
X007305Y010072D02*
X003438Y010072D01*
X003385Y010211D02*
X007369Y010211D01*
X006890Y009657D02*
X003367Y009657D01*
X003241Y009518D02*
X005266Y009518D01*
X005143Y009380D02*
X004893Y009380D01*
X004007Y009380D02*
X000520Y009380D01*
X000520Y009518D02*
X000738Y009518D01*
X000730Y009657D02*
X000520Y009657D01*
X000520Y009795D02*
X000730Y009795D01*
X000520Y009934D02*
X001350Y009934D01*
X001720Y009950D02*
X001900Y009950D01*
X002450Y009950D01*
X002900Y009950D01*
X003450Y009950D01*
X002900Y009950D01*
X002900Y009950D01*
X002900Y009400D01*
X002900Y009950D01*
X002900Y009950D01*
X002900Y009950D01*
X001900Y009950D01*
X001900Y009950D01*
X001900Y009950D01*
X001720Y009950D01*
X001720Y009950D01*
X001900Y009400D02*
X001900Y009400D01*
X002900Y009518D02*
X002900Y009518D01*
X002900Y009657D02*
X002900Y009657D01*
X002900Y009795D02*
X002900Y009795D01*
X002900Y009934D02*
X002900Y009934D01*
X003945Y009241D02*
X000520Y009241D01*
X000520Y009103D02*
X003945Y009103D01*
X003945Y008964D02*
X000520Y008964D01*
X000520Y008826D02*
X003945Y008826D01*
X003945Y008687D02*
X000520Y008687D01*
X000520Y008549D02*
X003945Y008549D01*
X003945Y008410D02*
X000520Y008410D01*
X000520Y008272D02*
X003945Y008272D01*
X003945Y008133D02*
X003889Y008133D01*
X003940Y007995D02*
X003945Y007995D01*
X003940Y007856D02*
X003972Y007856D01*
X003940Y007718D02*
X004148Y007718D01*
X004254Y007579D02*
X003940Y007579D01*
X002784Y007579D02*
X002668Y007579D01*
X002668Y007441D02*
X002784Y007441D01*
X002784Y007302D02*
X002668Y007302D01*
X002668Y007164D02*
X002784Y007164D01*
X002784Y007025D02*
X002668Y007025D01*
X002668Y006887D02*
X000520Y006887D01*
X000520Y007025D02*
X002300Y007025D01*
X002300Y007164D02*
X000520Y007164D01*
X000520Y007302D02*
X002333Y007302D01*
X002300Y007441D02*
X000520Y007441D01*
X000520Y007579D02*
X002300Y007579D01*
X002300Y007856D02*
X000520Y007856D01*
X000520Y007718D02*
X002668Y007718D01*
X002668Y007856D02*
X002784Y007856D01*
X002784Y007995D02*
X002668Y007995D01*
X002668Y008133D02*
X002784Y008133D01*
X002369Y008133D02*
X000520Y008133D01*
X000520Y007995D02*
X002300Y007995D01*
X002300Y006792D02*
X002300Y006532D01*
X002312Y006489D01*
X002334Y006450D01*
X002366Y006419D01*
X002404Y006396D01*
X002448Y006385D01*
X002668Y006385D01*
X002668Y006792D01*
X002300Y006792D01*
X002300Y006748D02*
X000520Y006748D01*
X001657Y006610D02*
X002300Y006610D01*
X002322Y006471D02*
X001954Y006471D01*
X002133Y006333D02*
X003412Y006333D01*
X003307Y006194D02*
X002271Y006194D01*
X002356Y006056D02*
X003307Y006056D01*
X003307Y005917D02*
X003282Y005917D01*
X002955Y005917D02*
X002899Y005917D01*
X002899Y005779D02*
X002955Y005779D01*
X002955Y005640D02*
X002899Y005640D01*
X002899Y005502D02*
X002955Y005502D01*
X002955Y005363D02*
X002899Y005363D01*
X002899Y005225D02*
X002955Y005225D01*
X003285Y005225D02*
X003307Y005225D01*
X003307Y005086D02*
X002488Y005086D01*
X002525Y005225D02*
X002569Y005225D01*
X002481Y005779D02*
X002479Y005779D01*
X002436Y005917D02*
X002571Y005917D01*
X002668Y006471D02*
X002784Y006471D01*
X002784Y006610D02*
X002668Y006610D01*
X002668Y006748D02*
X002784Y006748D01*
X004279Y005917D02*
X004370Y005917D01*
X004370Y005779D02*
X004279Y005779D01*
X004258Y005640D02*
X004370Y005640D01*
X004370Y005502D02*
X004257Y005502D01*
X004279Y005363D02*
X004370Y005363D01*
X004395Y005225D02*
X004279Y005225D01*
X004381Y005086D02*
X004497Y005086D01*
X004584Y004948D02*
X004636Y004948D01*
X004668Y004809D02*
X004748Y004809D01*
X004713Y004671D02*
X004703Y004671D01*
X004703Y004532D02*
X004713Y004532D01*
X004703Y004394D02*
X004713Y004394D01*
X004703Y004255D02*
X004713Y004255D01*
X004703Y004117D02*
X004713Y004117D01*
X004703Y003978D02*
X004713Y003978D01*
X004769Y003840D02*
X004646Y003840D01*
X004533Y003701D02*
X004883Y003701D01*
X006565Y005502D02*
X007904Y005502D01*
X007904Y005363D02*
X006704Y005363D01*
X006842Y005225D02*
X007911Y005225D01*
X007948Y005086D02*
X006981Y005086D01*
X007067Y004948D02*
X007985Y004948D01*
X008060Y004809D02*
X007080Y004809D01*
X007080Y004671D02*
X008140Y004671D01*
X008269Y004532D02*
X007080Y004532D01*
X007080Y004394D02*
X008422Y004394D01*
X008662Y004255D02*
X007080Y004255D01*
X007080Y004117D02*
X009916Y004117D01*
X009916Y003978D02*
X007189Y003978D01*
X007254Y003840D02*
X009916Y003840D01*
X009916Y003701D02*
X007254Y003701D01*
X007264Y003563D02*
X009916Y003563D01*
X009916Y003424D02*
X008148Y003424D01*
X008155Y003286D02*
X009916Y003286D01*
X009916Y003147D02*
X008155Y003147D01*
X008155Y003009D02*
X009916Y003009D01*
X009916Y002870D02*
X008155Y002870D01*
X008155Y002732D02*
X009916Y002732D01*
X009916Y002593D02*
X008155Y002593D01*
X008155Y002455D02*
X009916Y002455D01*
X009916Y002316D02*
X008155Y002316D01*
X008155Y002178D02*
X009916Y002178D01*
X009916Y002039D02*
X008155Y002039D01*
X008073Y001901D02*
X009916Y001901D01*
X009916Y001762D02*
X007405Y001762D01*
X007543Y001624D02*
X009916Y001624D01*
X009916Y001485D02*
X009892Y001485D01*
X008208Y001485D02*
X007929Y001485D01*
X007920Y005640D02*
X006514Y005640D01*
X006514Y005779D02*
X007957Y005779D01*
X008000Y005917D02*
X006514Y005917D01*
X006514Y006056D02*
X008080Y006056D01*
X008165Y006194D02*
X006544Y006194D01*
X006633Y006333D02*
X008303Y006333D01*
X008482Y006471D02*
X006671Y006471D01*
X006671Y006610D02*
X008779Y006610D01*
X006207Y009380D02*
X005957Y009380D01*
X005834Y009518D02*
X006751Y009518D01*
X000730Y010072D02*
X000520Y010072D01*
X000520Y010211D02*
X000730Y010211D01*
D20*
X004700Y007400D02*
X004700Y006200D01*
D21*
X004750Y006250D02*
X004650Y006250D01*
X004650Y006324D01*
X004693Y006428D01*
X004693Y007172D01*
X004650Y007276D01*
X004650Y007450D01*
X004750Y007450D01*
X004750Y007238D01*
X004723Y007172D01*
X004723Y006428D01*
X004750Y006362D01*
X004750Y006250D01*
X004750Y006262D02*
X004650Y006262D01*
X004673Y006381D02*
X004742Y006381D01*
X004723Y006499D02*
X004693Y006499D01*
X004693Y006618D02*
X004723Y006618D01*
X004723Y006736D02*
X004693Y006736D01*
X004693Y006855D02*
X004723Y006855D01*
X004723Y006973D02*
X004693Y006973D01*
X004693Y007092D02*
X004723Y007092D01*
X004739Y007210D02*
X004677Y007210D01*
X004650Y007329D02*
X004750Y007329D01*
X004750Y007447D02*
X004650Y007447D01*
M02*
